<svg width="16" height="16" viewBox="0 0 16 16" fill="none" xmlns="http://www.w3.org/2000/svg">
<path d="M0.641747 13.7891C0.272919 14.1579 0.272919 14.7559 0.641747 15.1247C1.01058 15.4936 1.60856 15.4936 1.97739 15.1247L0.641747 13.7891ZM14.8016 0.964844L15.7461 0.964844C15.7461 0.714362 15.6466 0.474138 15.4695 0.297021C15.2923 0.119903 15.0521 0.0203993 14.8016 0.0203993V0.964844ZM1.30957 0.0204C0.787968 0.0204 0.365126 0.443242 0.365126 0.964844C0.365126 1.48645 0.787968 1.90929 1.30957 1.90929L1.30957 0.0204ZM13.8572 14.4569C13.8572 14.9785 14.28 15.4014 14.8016 15.4014C15.3232 15.4014 15.7461 14.9785 15.7461 14.4569H13.8572ZM1.97739 15.1247L15.4695 1.63267L14.1338 0.297021L0.641747 13.7891L1.97739 15.1247ZM1.30957 1.90929L14.8016 1.90929V0.0203993L1.30957 0.0204L1.30957 1.90929ZM13.8572 0.964844L13.8572 14.4569H15.7461L15.7461 0.964844L13.8572 0.964844Z" fill="#111318"/>
</svg>
