<svg width="21" height="21" viewBox="0 0 21 21" fill="none" xmlns="http://www.w3.org/2000/svg">
<path d="M20.1714 19.0135L18.4504 17.2685V18.8396H1.66024V16.3511H2.85954V15.3917H1.66024V11.404H2.85954V10.4446H1.66024V6.60682H2.85954V5.64738H1.66024V2.29535L11.2186 11.7998V10.1088L1.48634 0.424455C1.40247 0.339888 1.29531 0.282213 1.17853 0.258785C1.06175 0.235357 0.940643 0.247237 0.830641 0.29291C0.72064 0.338583 0.626731 0.415981 0.560889 0.515234C0.495048 0.614487 0.460255 0.7311 0.460948 0.850205V19.4393C0.460948 19.5983 0.524125 19.7508 0.63658 19.8633C0.749036 19.9757 0.901559 20.0389 1.06059 20.0389H19.7456C19.8647 20.0396 19.9813 20.0048 20.0806 19.939C20.1798 19.8731 20.2572 19.7792 20.3029 19.6692C20.3486 19.5592 20.3605 19.4381 20.337 19.3213C20.3136 19.2045 20.2559 19.0974 20.1714 19.0135Z" fill="white"/>
</svg>
