<svg width="24" height="23" viewBox="0 0 24 23" fill="none" xmlns="http://www.w3.org/2000/svg">
<path d="M2.59898 4.9625C5.96945 0.473119 12.9511 -0.832652 17.9197 2.25695C22.8264 5.30642 24.6309 11.1726 22.62 16.6755C20.7227 21.8722 15.7232 23.93 12.12 21.3162C10.7707 20.3371 10.2467 19.1093 9.99452 17.1157L9.873 15.9842L9.82142 15.5279C9.68041 14.4571 9.46488 13.9779 9.01319 13.7257C8.39986 13.3841 7.99059 13.3761 7.18465 13.6879L6.78226 13.8553L6.57705 13.9447C5.41458 14.4491 4.6419 14.6268 3.664 14.4216L3.43472 14.3677L3.2467 14.3138C0.0493414 13.3233 -0.424129 8.98643 2.59898 4.9625ZM3.72705 12.6618L3.86806 12.7043L4.02168 12.7387C4.52496 12.8384 4.95487 12.7559 5.66909 12.4612L6.35923 12.1666C7.73723 11.6014 8.63487 11.5475 9.85122 12.2239C10.9025 12.8109 11.3129 13.712 11.5216 15.2734L11.5823 15.7996L11.6454 16.4095L11.6993 16.8933C11.8964 18.4536 12.2553 19.2893 13.13 19.9244C15.7381 21.816 19.4743 20.2787 21.0059 16.0851C22.7438 11.3251 21.2054 6.32444 17.0118 3.71634C12.7987 1.09792 6.80977 2.21911 3.97353 5.99427C1.59471 9.16183 1.88705 12.0474 3.72705 12.6618ZM16.5956 10.3759C16.5414 10.1925 16.5245 10.0001 16.5459 9.81005C16.5672 9.62 16.6264 9.43616 16.7199 9.26934C16.8134 9.10252 16.9394 8.95611 17.0903 8.83873C17.2413 8.72134 17.4143 8.63536 17.599 8.58585C17.7837 8.53635 17.9764 8.52431 18.1659 8.55046C18.3553 8.5766 18.5376 8.6404 18.702 8.7381C18.8664 8.83579 19.0096 8.9654 19.1231 9.11929C19.2367 9.27318 19.3182 9.44824 19.3631 9.63415C19.4507 9.99753 19.3928 10.3808 19.2019 10.7021C19.0109 11.0234 18.702 11.2574 18.3409 11.3542C17.9799 11.451 17.5953 11.4028 17.2693 11.2201C16.9432 11.0373 16.7015 10.7344 16.5956 10.3759ZM17.1619 14.3746C17.0636 14.0075 17.1151 13.6163 17.3051 13.2871C17.4952 12.958 17.8082 12.7178 18.1754 12.6194C18.5425 12.5211 18.9337 12.5726 19.2628 12.7626C19.592 12.9527 19.8322 13.2657 19.9305 13.6329C19.9792 13.8147 19.9917 14.0043 19.9671 14.1908C19.9425 14.3774 19.8814 14.5574 19.7873 14.7203C19.6932 14.8833 19.5679 15.0262 19.4186 15.1407C19.2693 15.2553 19.0989 15.3393 18.9171 15.388C18.7353 15.4367 18.5457 15.4492 18.3591 15.4246C18.1725 15.4 17.9926 15.3389 17.8296 15.2448C17.6666 15.1507 17.5238 15.0254 17.4092 14.8761C17.2947 14.7268 17.2106 14.5564 17.1619 14.3746ZM14.328 6.93319C14.2296 6.56605 14.2811 6.17487 14.4712 5.84572C14.6613 5.51656 14.9743 5.27638 15.3414 5.17802C15.7086 5.07966 16.0997 5.13118 16.4289 5.32123C16.7581 5.51129 16.9982 5.82432 17.0966 6.19146C17.1453 6.37325 17.1577 6.56285 17.1331 6.74944C17.1086 6.93602 17.0475 7.11595 16.9534 7.27893C16.8593 7.44191 16.734 7.58476 16.5847 7.69933C16.4354 7.81389 16.2649 7.89792 16.0832 7.94662C15.716 8.04498 15.3248 7.99347 14.9957 7.80341C14.8327 7.70931 14.6898 7.58402 14.5753 7.43471C14.4607 7.28539 14.3767 7.11498 14.328 6.93319ZM14.2959 17.2487C14.2417 17.0653 14.2248 16.8729 14.2462 16.6828C14.2675 16.4928 14.3267 16.3089 14.4202 16.1421C14.5137 15.9753 14.6397 15.8289 14.7906 15.7115C14.9416 15.5941 15.1145 15.5081 15.2993 15.4586C15.484 15.4091 15.6767 15.3971 15.8662 15.4232C16.0556 15.4494 16.2379 15.5132 16.4023 15.6109C16.5667 15.7086 16.7099 15.8382 16.8234 15.9921C16.9369 16.146 17.0185 16.321 17.0633 16.5069C17.151 16.8703 17.0931 17.2535 16.9022 17.5749C16.7112 17.8962 16.4023 18.1302 16.0412 18.227C15.6802 18.3237 15.2956 18.2756 14.9696 18.0928C14.6435 17.9101 14.4018 17.6072 14.2959 17.2487ZM10.2869 5.81887C10.2364 5.6365 10.2226 5.44595 10.2461 5.2582C10.2697 5.07045 10.3302 4.88923 10.4242 4.725C10.5182 4.56076 10.6437 4.41677 10.7937 4.30132C10.9436 4.18587 11.1149 4.10126 11.2977 4.05236C11.4805 4.00347 11.6711 3.99125 11.8587 4.01643C12.0462 4.04161 12.2269 4.10369 12.3903 4.19907C12.5538 4.29445 12.6967 4.42125 12.8108 4.57215C12.925 4.72306 13.0081 4.89508 13.0555 5.07828C13.15 5.44421 13.0961 5.83265 12.9056 6.15906C12.7151 6.48547 12.4034 6.7234 12.0383 6.82106C11.6732 6.91873 11.2843 6.86821 10.9563 6.68051C10.6282 6.4928 10.3876 6.18312 10.2869 5.81887Z" fill="white"/>
</svg>
