<svg width="24" height="24" viewBox="0 0 24 24" fill="none" xmlns="http://www.w3.org/2000/svg">
<path d="M7.69231 15.4898C7.30178 15.8803 7.30178 16.5135 7.69231 16.904C8.08283 17.2945 8.716 17.2945 9.10652 16.904L7.69231 15.4898ZM16.7994 7.79688L17.7994 7.79688C17.7994 7.53166 17.6941 7.2773 17.5065 7.08977C17.319 6.90223 17.0646 6.79688 16.7994 6.79688V7.79688ZM8.39941 6.79688C7.84713 6.79688 7.39941 7.24459 7.39941 7.79688C7.39941 8.34916 7.84713 8.79688 8.39941 8.79688L8.39941 6.79688ZM15.7994 16.1969C15.7994 16.7492 16.2471 17.1969 16.7994 17.1969C17.3517 17.1969 17.7994 16.7492 17.7994 16.1969H15.7994ZM9.10652 16.904L17.5065 8.50398L16.0923 7.08977L7.69231 15.4898L9.10652 16.904ZM8.39941 8.79688L16.7994 8.79688V6.79688L8.39941 6.79688L8.39941 8.79688ZM15.7994 7.79687L15.7994 16.1969H17.7994V7.79688L15.7994 7.79687Z" fill="#787E8C"/>
</svg>
