<svg width="27" height="15" viewBox="0 0 27 15" fill="none" xmlns="http://www.w3.org/2000/svg">
<path d="M3.0108 11.6947V3.19466H18.0694V11.6947H3.0108ZM24.6543 3.90299C25.0526 3.90299 25.3927 4.04134 25.6745 4.31803C25.9563 4.59473 26.0972 4.9286 26.0972 5.31966V9.56966C26.0972 9.96072 25.9563 10.2946 25.6745 10.5713C25.3927 10.848 25.0526 10.9863 24.6543 10.9863V12.7572C24.6543 13.2441 24.4777 13.661 24.1245 14.0078C23.7713 14.3546 23.3467 14.528 22.8507 14.528H1.92863C1.43263 14.528 1.00803 14.3546 0.654815 14.0078C0.301605 13.661 0.125 13.2441 0.125 12.7572V2.13216C0.125 1.64518 0.301605 1.2283 0.654815 0.88151C1.00803 0.534722 1.43263 0.361328 1.92863 0.361328H22.8507C23.3467 0.361328 23.7713 0.534722 24.1245 0.88151C24.4777 1.2283 24.6543 1.64518 24.6543 2.13216V3.90299ZM24.6543 9.56966V5.31966H23.2114V2.13216C23.2114 2.02886 23.1776 1.94401 23.11 1.8776C23.0423 1.8112 22.9559 1.77799 22.8507 1.77799H1.92863C1.82341 1.77799 1.73699 1.8112 1.66936 1.8776C1.60172 1.94401 1.5679 2.02886 1.5679 2.13216V12.7572C1.5679 12.8605 1.60172 12.9453 1.66936 13.0117C1.73699 13.0781 1.82341 13.1113 1.92863 13.1113H22.8507C22.9559 13.1113 23.0423 13.0781 23.11 13.0117C23.1776 12.9453 23.2114 12.8605 23.2114 12.7572V9.56966H24.6543Z" fill="white"/>
</svg>
