<svg width="23" height="16" viewBox="0 0 23 16" fill="none" xmlns="http://www.w3.org/2000/svg">
<path d="M19.9837 4.5516C19.7464 4.5516 19.5541 4.74392 19.5541 4.98119V7.5304H18.6807V5.37703C18.6807 5.13976 18.4884 4.94744 18.2511 4.94744H16.258L15.8868 3.70976C15.8323 3.52804 15.665 3.40361 15.4753 3.40361H12.4407V2.31676H14.3515C14.5888 2.31676 14.7811 2.12445 14.7811 1.88717V0.453023C14.7811 0.215749 14.5888 0.0234375 14.3515 0.0234375H8.19604C7.95876 0.0234375 7.76645 0.215749 7.76645 0.453023V1.88722C7.76645 2.12449 7.95876 2.3168 8.19604 2.3168H10.1068V3.40366H5.68139C5.52401 3.40366 5.37924 3.48967 5.30407 3.6279L4.58599 4.94749H2.90559C2.66832 4.94749 2.47601 5.1398 2.47601 5.37708V7.53045H1.51054V4.45929C1.51054 4.22202 1.31823 4.02971 1.08095 4.02971C0.843678 4.02971 0.651367 4.22202 0.651367 4.45929V13.3378C0.651367 13.5751 0.843678 13.7674 1.08095 13.7674C1.31823 13.7674 1.51054 13.5751 1.51054 13.3378V10.2666H2.47601V12.5406C2.47601 12.7778 2.66832 12.9701 2.90559 12.9701H6.48242L8.11771 15.0802C8.19909 15.1852 8.32444 15.2467 8.45727 15.2467H18.2511C18.4884 15.2467 18.6807 15.0544 18.6807 14.8171V10.2667H19.5541V12.8159C19.5541 13.0532 19.7464 13.2455 19.9837 13.2455C21.2271 13.2455 22.2387 12.2339 22.2387 10.9905V6.80674C22.2387 5.56323 21.2271 4.5516 19.9837 4.5516ZM1.51054 9.4074V8.38957H2.47601V9.4074H1.51054ZM8.62562 0.882609H13.9219V1.45763H8.62562V0.882609ZM10.966 2.3168H11.5816V3.40366H10.966V2.3168ZM3.33518 5.80662H3.64042V12.1109H3.33518V5.80662ZM7.03253 12.2774C6.95115 12.1724 6.8258 12.1109 6.69296 12.1109H4.4996V5.80662H4.84131C4.99868 5.80662 5.14345 5.7206 5.21863 5.58237L5.9367 4.26278H15.1556L15.5269 5.50046C15.5814 5.68218 15.7486 5.80662 15.9384 5.80662H16.7093V14.3874H8.66782L7.03253 12.2774ZM17.8215 14.3874H17.5685V5.80662H17.8215V14.3874ZM18.6807 9.4074V8.38957H19.5541V9.4074H18.6807ZM21.3795 10.9904C21.3795 11.6102 20.9734 12.137 20.4133 12.3186V5.47841C20.9734 5.65998 21.3795 6.18675 21.3795 6.80664V10.9904Z" fill="white"/>
</svg>
