<svg width="23" height="24" viewBox="0 0 23 24" fill="none" xmlns="http://www.w3.org/2000/svg">
<path d="M22.7423 18.8807L22.7424 18.8807C22.7911 20.1847 22.2898 21.4618 21.367 22.385L21.367 22.385C20.4782 23.2737 19.2962 23.7632 18.0404 23.7632H18.0404H18.0404H18.0403H18.0403H18.0403H18.0403H18.0403H18.0403H18.0403H18.0402H18.0402H18.0402H18.0402H18.0402H18.0402H18.0401H18.0401H18.0401H18.0401H18.0401H18.0401H18.0401H18.04H18.04H18.04H18.04H18.04H18.04H18.0399H18.0399C16.6676 23.7632 15.3666 23.1671 14.4719 22.127C14.4718 22.127 14.4718 22.127 14.4718 22.127L9.26765 16.0797C8.61713 16.2526 7.95039 16.3403 7.28025 16.3403C4.21302 16.3403 1.4325 14.5234 0.195752 11.7113C0.113671 11.5259 0.131392 11.3114 0.242112 11.1416L0.24238 11.1412H0.242381C0.35358 10.9721 0.542077 10.8694 0.745124 10.8694H7.2993V6.33183H0.74517C0.542145 6.33183 0.353587 6.22914 0.242422 6.06012L0.242167 6.05974C0.131392 5.88986 0.113713 5.6753 0.195875 5.48977C0.195894 5.48973 0.195912 5.48969 0.195931 5.48965L0.303864 5.53748C1.52176 2.76821 4.25994 0.978516 7.28029 0.978516C11.4827 0.978516 14.9019 4.39776 14.9024 8.60062C14.9024 9.11025 14.8454 9.63302 14.7337 10.1589L22.7423 18.8807ZM22.7423 18.8807C22.6931 17.5767 22.098 16.3412 21.109 15.4899L21.032 15.5794L21.109 15.4899L14.8634 10.1148L22.7423 18.8807ZM7.28029 15.1397C5.00989 15.1397 2.92512 13.9607 1.74053 12.0701H7.8996C8.23132 12.0701 8.49995 11.8016 8.49995 11.4698V5.73153C8.49995 5.3998 8.2314 5.13118 7.8996 5.13118H1.74046C2.9246 3.24021 5.00985 2.06111 7.28029 2.06111C10.8858 2.06111 13.8198 4.99466 13.8198 8.60062C13.8198 9.86587 13.346 11.5038 12.2903 12.8235C11.2378 14.1392 9.60642 15.1397 7.28029 15.1397ZM20.3258 16.3998L20.4028 16.3103L20.3258 16.3998C21.0738 17.0435 21.5054 17.9399 21.5423 18.9258C21.5793 19.9117 21.2159 20.8383 20.5181 21.5361C19.8554 22.1983 18.976 22.5626 18.0404 22.5626H18.0404H18.0404H18.0404H18.0404H18.0404H18.0403H18.0403H18.0403H18.0403H18.0403H18.0403H18.0403H18.0402H18.0402H18.0402H18.0402H18.0402H18.0402H18.0401H18.0401H18.0401H18.0401H18.0401H18.0401H18.0401H18.04H18.04H18.04H18.04C17.0175 22.5626 16.0485 22.1184 15.3819 21.3438L10.4784 15.6462C12.3117 14.808 13.766 13.2624 14.4944 11.3814L20.3258 16.3998Z" fill="white" stroke="white" stroke-width="0.236111"/>
</svg>
