<svg width="28" height="14" viewBox="0 0 28 14" fill="none" xmlns="http://www.w3.org/2000/svg">
<path d="M23.0434 4.6494C22.9203 4.52696 22.7556 4.45532 22.5822 4.44874C22.4087 4.44216 22.2391 4.5011 22.1071 4.61386L14.6805 10.9673C14.5075 11.1131 14.367 11.2936 14.2681 11.4971C14.1692 11.7006 14.1141 11.9226 14.1064 12.1487C14.0987 12.3749 14.1386 12.6001 14.2234 12.8098C14.3082 13.0196 14.4361 13.2092 14.5988 13.3664C14.7615 13.5237 14.9555 13.645 15.168 13.7225C15.3806 13.8001 15.607 13.8322 15.8328 13.8167C16.0585 13.8013 16.2785 13.7386 16.4785 13.6328C16.6784 13.5269 16.854 13.3803 16.9937 13.2024L23.0949 5.56794C23.201 5.43507 23.2545 5.26773 23.245 5.09794C23.2355 4.92814 23.1637 4.76781 23.0434 4.64762V4.6494Z" fill="white"/>
<path fill-rule="evenodd" clip-rule="evenodd" d="M26.4476 8.71311C27.1188 10.3334 27.4642 12.0701 27.4642 13.8239H25.4548C25.2974 12.9446 25.0455 12.0828 24.702 11.2536C24.0765 9.74335 23.1596 8.37111 22.0037 7.21522C20.8478 6.05933 19.4755 5.14243 17.9653 4.51687C16.4551 3.89131 14.8364 3.56934 13.2017 3.56934C11.5671 3.56934 9.94839 3.89131 8.43815 4.51687C6.92791 5.14243 5.55568 6.05933 4.39979 7.21522C3.2439 8.37111 2.327 9.74335 1.70144 11.2536C1.35798 12.0828 1.10604 12.9446 0.948651 13.8239H0.753906C0.753906 12.0701 1.09935 10.3334 1.77051 8.71311C2.44167 7.09279 3.4254 5.62053 4.66554 4.38039C5.90568 3.14024 7.37794 2.15651 8.99827 1.48535C10.6186 0.814191 12.3552 0.46875 14.1091 0.46875C15.8629 0.46875 17.5995 0.814191 19.2199 1.48535C20.8402 2.15651 22.3124 3.14024 23.5526 4.38038C24.7927 5.62053 25.7765 7.09279 26.4476 8.71311Z" fill="white"/>
</svg>
