<svg width="12" height="28" viewBox="0 0 12 28" fill="none" xmlns="http://www.w3.org/2000/svg">
<path d="M7.8229 2.21424C7.8229 1.8316 7.51279 1.52148 7.13015 1.52148H2.99768C2.61512 1.52148 2.30493 1.83158 2.30493 2.21424C2.30493 2.59689 2.61512 2.90699 2.99768 2.90699H7.13015C7.51276 2.90699 7.8229 2.59694 7.8229 2.21424Z" fill="white" stroke="white" stroke-width="0.5"/>
<path d="M11.3675 19.4385H10.8623C9.56687 19.4385 8.51299 20.4924 8.51299 21.7878V22.865V24.9375V25.6508C8.51299 26.458 7.85641 27.1146 7.04933 27.1146C6.24219 27.1146 5.58561 26.458 5.58561 25.6508V24.9375V22.865V19.9758H6.61308C6.85765 19.9758 7.05584 19.7776 7.05584 19.533V16.6995H8.56171C9.32017 16.6995 9.93727 16.0824 9.93727 15.3238V6.19846C9.93727 5.9539 9.73908 5.75571 9.49452 5.75571H9.31389V1.15117C9.31389 0.516415 8.79747 0 8.16271 0H1.96425C1.3295 0 0.813081 0.516415 0.813081 1.15117V5.75571H0.632448C0.387939 5.75571 0.189697 5.9539 0.189697 6.19846V15.3238C0.189697 16.0824 0.806846 16.6995 1.56542 16.6995H3.07119V19.533C3.07119 19.7776 3.26943 19.9758 3.51394 19.9758H4.70017V22.8649V24.9374V25.6508C4.70017 26.9461 5.75405 28.0001 7.04944 28.0001C8.34482 28.0001 9.39865 26.9462 9.39865 25.6508V24.9374V22.865V21.7878C9.39865 20.9807 10.0553 20.3241 10.8624 20.3241H11.3676C11.6121 20.3241 11.8103 20.1259 11.8103 19.8814C11.8103 19.6367 11.612 19.4385 11.3675 19.4385ZM3.51377 15.814H1.56525C1.29499 15.814 1.07514 15.5941 1.07514 15.3238V6.64126H6.20643C6.45099 6.64126 6.64918 6.44308 6.64918 6.19851C6.64918 5.95395 6.45099 5.75576 6.20643 5.75576H1.69853V1.15117C1.69853 1.00472 1.81775 0.885502 1.9642 0.885502H8.16255C8.309 0.885502 8.42822 1.00472 8.42822 1.15117V5.75571H7.5052C7.26064 5.75571 7.06245 5.9539 7.06245 6.19846C7.06245 6.44302 7.26064 6.64121 7.5052 6.64121H9.05166V15.3238C9.05166 15.5941 8.83181 15.814 8.5616 15.814H6.61298H3.51377ZM3.95658 19.0902V16.6995H6.17022V19.0902H3.95658Z" fill="white"/>
</svg>
