<svg width="24" height="22" viewBox="0 0 24 22" fill="none" xmlns="http://www.w3.org/2000/svg">
<path d="M23.1052 8.63831C23.1052 8.63826 23.1052 8.63826 23.1052 8.63822C22.8455 7.65014 22.4326 6.70358 21.8779 5.82469C21.0893 4.57514 20.0505 3.50474 18.7905 2.64318C16.8137 1.29157 14.4656 0.577148 12.0001 0.577148C11.3105 0.577148 10.618 0.634782 9.94194 0.748443C8.02573 1.07059 6.21689 1.85063 4.71122 3.00429C2.49801 4.70005 1.06573 7.07692 0.67823 9.6971C0.607426 10.1757 0.571533 10.6613 0.571533 11.1406C0.571533 13.0213 1.11301 14.8679 2.13738 16.4807C3.12796 18.0403 4.54421 19.3478 6.23305 20.2618C6.23319 20.2619 6.23332 20.262 6.23345 20.2621C7.19167 20.7806 8.22377 21.1658 9.30109 21.4069C10.182 21.6041 11.0901 21.7041 12.0001 21.7041C14.2103 21.7041 16.3549 21.1199 18.2021 20.0147C20.0065 18.9351 21.4416 17.4156 22.3522 15.6206C23.0665 14.2126 23.4287 12.7053 23.4287 11.1406C23.4287 10.2968 23.3198 9.45492 23.1052 8.63831ZM18.9712 3.9126C19.5419 4.37568 20.053 4.89108 20.5005 5.45478L19.6004 5.24809C19.3118 5.18179 19.0152 5.25197 18.7867 5.44041C18.5582 5.62889 18.4331 5.90684 18.4434 6.20291C18.4438 6.21514 18.4377 6.22697 18.4273 6.23367L17.7662 6.6655C17.7551 6.67273 17.7409 6.67318 17.7294 6.66657L16.7981 6.13617C16.7152 6.08893 16.6725 5.99112 16.6943 5.89822L16.9038 5.00371C16.9263 4.90791 17.0106 4.83916 17.109 4.83643L17.898 4.81447C18.4272 4.79974 18.8678 4.41326 18.9712 3.9126ZM6.22845 18.1995L6.09533 19.1284C3.23403 17.3408 1.48216 14.3346 1.48216 11.1406C1.48216 10.858 1.49591 10.573 1.52319 10.2887L2.13256 10.3872C2.286 10.412 2.44278 10.4246 2.59845 10.4246H2.90711C3.33497 10.4246 3.75993 10.565 4.10363 10.8198L4.57131 11.1665C4.61131 11.1961 4.63738 11.2416 4.64269 11.2911L4.70609 11.8776C4.71631 11.9725 4.65055 12.0586 4.55631 12.0737C4.02457 12.1588 3.63019 12.6289 3.6389 13.1673L3.6722 15.2318C3.676 15.4663 3.75319 15.6889 3.89551 15.8753L4.6376 16.8476C4.98774 17.3065 5.46122 17.6484 6.00685 17.8366C6.15792 17.8887 6.25113 18.0413 6.22845 18.1995ZM9.16185 20.4371C8.39158 20.2395 7.64885 19.9613 6.94658 19.6074L7.12984 18.3288C7.21444 17.739 6.86693 17.1699 6.30368 16.9757C5.92823 16.8462 5.60243 16.6109 5.36149 16.2951L4.61943 15.3229C4.59604 15.2922 4.58336 15.2556 4.58274 15.2171L4.54944 13.1527C4.54801 13.0642 4.61287 12.9869 4.70024 12.9729C5.27363 12.8812 5.6739 12.3571 5.61149 11.7797L5.5481 11.1932C5.51555 10.8918 5.3572 10.6155 5.11368 10.4349L4.646 10.0882C4.14644 9.71791 3.5289 9.51393 2.90711 9.51393H2.59845C2.49131 9.51393 2.3835 9.50527 2.27787 9.48822L1.65591 9.38768C2.09738 7.17822 3.36676 5.18157 5.26502 3.7271C6.60301 2.70193 8.2022 1.99652 9.90122 1.68041C10.1589 1.89483 10.3584 2.16983 10.4829 2.48447L10.5087 2.54978C10.5734 2.71313 10.6164 2.88447 10.6365 3.05902L10.6595 3.25768C10.7002 3.61103 10.6462 3.96996 10.5032 4.29563L10.2556 4.85969C10.0935 5.2288 9.82761 5.53751 9.48649 5.75224L9.17801 5.94648C8.86546 6.14322 8.68274 6.49465 8.70113 6.86353L8.74283 7.69688C8.74493 7.73943 8.72515 7.76768 8.70819 7.78393C8.69122 7.80014 8.66216 7.81849 8.61966 7.8146C8.58211 7.81103 8.54903 7.78907 8.53113 7.75585L8.15225 7.05224C8.02109 6.80853 7.79292 6.62612 7.52631 6.5517L6.1872 6.17795C5.83528 6.07974 5.45823 6.10893 5.12564 6.26009L4.80676 6.40505C4.13586 6.71001 3.76921 7.45255 3.93493 8.17054C4.00051 8.45487 4.1443 8.71429 4.3506 8.92059L5.22064 9.79068C5.2697 9.83965 5.31671 9.89192 5.36051 9.94594L5.95698 10.6816C6.22037 11.0065 6.61086 11.1926 7.02899 11.1925C7.03042 11.1925 7.0318 11.1925 7.03323 11.1925L8.65827 11.1876C8.65877 11.1876 8.65921 11.1876 8.65975 11.1876C8.82609 11.1876 8.9814 11.2767 9.06524 11.4205C9.26033 11.755 9.58944 11.9935 9.96819 12.0746L10.5771 12.2051C10.711 12.2338 10.8253 12.3192 10.8909 12.4394L11.1849 12.9785C11.3028 13.1946 11.4812 13.3679 11.7007 13.4794L13.0827 14.1817C13.1964 14.2395 13.262 14.3632 13.2463 14.4897C13.2371 14.563 13.2016 14.6304 13.1463 14.6793L12.6213 15.1437C12.4733 15.2746 12.3584 15.4416 12.289 15.6266L12.1745 15.9318C12.1397 16.0248 12.0671 16.0999 11.9753 16.138L11.4162 16.3698C10.9399 16.5672 10.6321 17.028 10.6321 17.5437C10.6321 17.6016 10.6179 17.6595 10.591 17.7109L9.16185 20.4371ZM12.0001 20.7934C11.3578 20.7934 10.7168 20.7397 10.0871 20.6334L11.3975 18.1336C11.4925 17.9524 11.5428 17.7483 11.5428 17.5436C11.5428 17.3975 11.63 17.2669 11.765 17.2109L12.3242 16.9791C12.648 16.8447 12.9043 16.5795 13.0272 16.2514L13.1417 15.9464C13.159 15.9002 13.1877 15.8584 13.2247 15.8257L13.7497 15.3613C13.9711 15.1655 14.1132 14.896 14.1499 14.6027C14.2132 14.0965 13.9502 13.6011 13.4953 13.3699L12.1133 12.6676C12.0585 12.6397 12.0139 12.5964 11.9844 12.5424L11.6904 12.0033C11.4977 11.65 11.1614 11.399 10.7679 11.3146L10.1591 11.1842C10.0302 11.1566 9.91827 11.0755 9.85189 10.9617C9.60533 10.5391 9.14881 10.277 8.65975 10.277C8.65832 10.277 8.65693 10.277 8.65551 10.277L7.03051 10.2819C7.03002 10.2819 7.02957 10.2819 7.02903 10.2819C6.8868 10.2819 6.75394 10.2186 6.66435 10.1081L6.06783 9.37246C6.00417 9.29393 5.93573 9.21795 5.86448 9.14675L4.99448 8.27675C4.90899 8.1913 4.84944 8.0838 4.82225 7.96594C4.75359 7.66831 4.90555 7.36054 5.18359 7.23416L5.50247 7.0892C5.64037 7.02657 5.79662 7.01443 5.94252 7.05514L7.28162 7.42889C7.31095 7.4371 7.33604 7.45715 7.35051 7.48398L7.72944 8.18764C7.89185 8.48925 8.19238 8.68867 8.53341 8.72117C8.82935 8.74942 9.12256 8.64768 9.33756 8.44219C9.55256 8.2367 9.66729 7.94844 9.65247 7.65139L9.61077 6.81804C9.60877 6.77742 9.62885 6.73876 9.66327 6.7171L9.97176 6.52286C10.4675 6.21072 10.854 5.76219 11.0896 5.22576L11.3372 4.6617C11.5449 4.1884 11.6235 3.66684 11.5642 3.15326L11.5413 2.9546C11.512 2.70103 11.4495 2.45206 11.3556 2.21465L11.3297 2.14929C11.2424 1.92885 11.1294 1.72201 10.9942 1.5317H10.9948C11.3289 1.50251 11.6649 1.48782 12.0001 1.48782C14.2001 1.48782 16.297 2.10112 18.0802 3.2638L18.0836 3.68563C18.0845 3.80286 17.9899 3.9009 17.8727 3.9042L17.0838 3.92617C16.5724 3.94036 16.1339 4.29813 16.0172 4.79612L15.8077 5.69054C15.6946 6.1734 15.9165 6.6821 16.3474 6.92751L17.2787 7.45791C17.4249 7.54112 17.5862 7.58255 17.7471 7.58255C17.9271 7.58255 18.1066 7.53076 18.2641 7.42795L18.9253 6.99612C19.2008 6.81621 19.3648 6.50014 19.3534 6.17135C19.3532 6.16661 19.3528 6.15389 19.3662 6.14286C19.3798 6.13175 19.392 6.13469 19.3966 6.13568L20.4177 6.37018C20.4431 6.37603 20.469 6.38085 20.4951 6.38456L21.217 6.48818C21.5309 7.01076 21.7905 7.55786 21.9931 8.12331L21.2877 7.95282C21.2596 7.94603 21.2309 7.94018 21.2022 7.93559L20.4321 7.81139C19.5958 7.67652 18.7453 7.96054 18.1579 8.57148L18.042 8.69201C17.6985 9.04934 17.466 9.49523 17.3697 9.98148L17.0761 11.4656C16.9737 11.983 17.0306 12.5122 17.2405 12.996C17.6071 13.8407 18.4031 14.4303 19.3178 14.5347L19.4605 14.551C19.8516 14.5957 20.2544 14.5491 20.625 14.4163L21.1106 14.2423C21.1972 14.2113 21.2943 14.2385 21.3524 14.3102L21.4162 14.3889C21.446 14.4257 21.4631 14.4719 21.4645 14.5191L21.4875 15.3106C19.7436 18.645 16.0333 20.7934 12.0001 20.7934ZM22.1134 13.8028L22.0603 13.7371C21.8422 13.4676 21.517 13.3191 21.183 13.3191C21.056 13.3191 20.9278 13.3406 20.8037 13.3851L20.318 13.559C20.078 13.645 19.817 13.6752 19.5639 13.6462L19.4212 13.6299C18.8288 13.5623 18.3133 13.1805 18.076 12.6335C17.9399 12.3202 17.9031 11.9775 17.9694 11.6424L18.2631 10.1583C18.3254 9.84335 18.4759 9.5546 18.6985 9.32322L18.8143 9.20268C19.1947 8.8071 19.7454 8.62309 20.2871 8.7105L21.0572 8.83469C21.0626 8.83559 21.0681 8.83666 21.0736 8.838L22.289 9.1317C22.4411 9.79018 22.518 10.4647 22.518 11.1406C22.5181 12.0526 22.3824 12.9433 22.1134 13.8028Z" fill="white"/>
</svg>
