<svg width="40" height="41" viewBox="0 0 40 41" fill="none" xmlns="http://www.w3.org/2000/svg">
<path d="M29.0408 17.0777C28.7896 17.0777 28.5859 17.2814 28.5859 17.5326V20.2318H27.6612V17.9517C27.6612 17.7005 27.4575 17.4969 27.2063 17.4969H25.096L24.7029 16.1864C24.6452 15.994 24.4681 15.8622 24.2672 15.8622H21.0541V14.7114H23.0773C23.3286 14.7114 23.5322 14.5078 23.5322 14.2566V12.7381C23.5322 12.4868 23.3286 12.2832 23.0773 12.2832H16.5598C16.3085 12.2832 16.1049 12.4868 16.1049 12.7381V14.2566C16.1049 14.5079 16.3085 14.7115 16.5598 14.7115H18.5829V15.8623H13.8972C13.7306 15.8623 13.5773 15.9533 13.4977 16.0997L12.7374 17.4969H10.9581C10.7069 17.4969 10.5033 17.7005 10.5033 17.9518V20.2318H9.481V16.98C9.481 16.7288 9.27738 16.5251 9.02614 16.5251C8.77491 16.5251 8.57129 16.7288 8.57129 16.98V26.3807C8.57129 26.632 8.77491 26.8356 9.02614 26.8356C9.27738 26.8356 9.481 26.632 9.481 26.3807V23.1289H10.5033V25.5366C10.5033 25.7879 10.7069 25.9915 10.9581 25.9915H14.7453L16.4768 28.2257C16.563 28.3369 16.6957 28.4019 16.8364 28.4019H27.2063C27.4575 28.4019 27.6612 28.1983 27.6612 27.9471V23.129H28.5859V25.8281C28.5859 26.0794 28.7896 26.283 29.0408 26.283C30.3573 26.283 31.4284 25.2119 31.4284 23.8954V19.4655C31.4284 18.1489 30.3573 17.0777 29.0408 17.0777ZM9.481 22.2192V21.1415H10.5033V22.2192H9.481ZM17.0146 13.1929H22.6224V13.8018H17.0146V13.1929ZM19.4927 14.7115H20.1444V15.8623H19.4927V14.7115ZM11.413 18.4066H11.7362V25.0817H11.413V18.4066ZM15.3278 25.258C15.2416 25.1468 15.1089 25.0817 14.9683 25.0817H12.6459V18.4066H13.0077C13.1743 18.4066 13.3276 18.3155 13.4072 18.1691L14.1675 16.7719H23.9287L24.3218 18.0824C24.3795 18.2748 24.5566 18.4066 24.7575 18.4066H25.5738V27.4921H17.0593L15.3278 25.258ZM26.7515 27.4921H26.4835V18.4066H26.7515V27.4921ZM27.6612 22.2192V21.1415H28.5859V22.2192H27.6612ZM30.5187 23.8953C30.5187 24.5516 30.0887 25.1093 29.4956 25.3016V18.0591C30.0887 18.2513 30.5187 18.8091 30.5187 19.4654V23.8953Z" fill="white"/>
</svg>
