<svg width="27" height="25" viewBox="0 0 27 25" fill="none" xmlns="http://www.w3.org/2000/svg">
<path d="M25.5753 5.00739C25.5753 8.46832 21.1255 11.4348 21.1255 11.4348C21.1255 11.4348 16.6758 8.46832 16.6758 5.00739C16.6758 3.82723 17.1446 2.69542 17.9791 1.86092C18.8136 1.02643 19.9454 0.557617 21.1255 0.557617C22.3057 0.557617 23.4375 1.02643 24.272 1.86092C25.1065 2.69542 25.5753 3.82723 25.5753 5.00739Z" stroke="white" stroke-linecap="round" stroke-linejoin="round"/>
<path d="M21.1256 6.49093C21.9448 6.49093 22.6088 5.82685 22.6088 5.00767C22.6088 4.18849 21.9448 3.52441 21.1256 3.52441C20.3064 3.52441 19.6423 4.18849 19.6423 5.00767C19.6423 5.82685 20.3064 6.49093 21.1256 6.49093Z" stroke="white" stroke-linecap="round" stroke-linejoin="round"/>
<path d="M10.1495 16.8736C10.1495 20.3345 5.69977 23.301 5.69977 23.301C5.69977 23.301 1.25 20.3345 1.25 16.8736C1.25 15.6934 1.71881 14.5616 2.55331 13.7271C3.3878 12.8926 4.51962 12.4238 5.69977 12.4238C6.87992 12.4238 8.01174 12.8926 8.84623 13.7271C9.68072 14.5616 10.1495 15.6934 10.1495 16.8736Z" stroke="white" stroke-linecap="round" stroke-linejoin="round"/>
<path d="M5.69981 18.3571C6.51899 18.3571 7.18306 17.6931 7.18306 16.8739C7.18306 16.0547 6.51899 15.3906 5.69981 15.3906C4.88063 15.3906 4.21655 16.0547 4.21655 16.8739C4.21655 17.6931 4.88063 18.3571 5.69981 18.3571Z" stroke="white" stroke-linecap="round" stroke-linejoin="round"/>
<path d="M8 23.6406C13.5375 25.2228 24.7113 24.486 23 17.6406C22 13.6406 5.35404 12.8272 19 11.6406" stroke="white" stroke-linecap="round"/>
</svg>
