<svg width="28" height="16" viewBox="0 0 28 16" fill="none" xmlns="http://www.w3.org/2000/svg">
<path d="M3.30556 12.6406V3.64062H19.25V12.6406H3.30556ZM26.2222 4.39062C26.644 4.39062 27.004 4.53711 27.3024 4.83008C27.6008 5.12305 27.75 5.47656 27.75 5.89063V10.3906C27.75 10.8047 27.6008 11.1582 27.3024 11.4512C27.004 11.7441 26.644 11.8906 26.2222 11.8906V13.7656C26.2222 14.2812 26.0352 14.7227 25.6612 15.0898C25.2873 15.457 24.8377 15.6406 24.3125 15.6406H2.15972C1.63455 15.6406 1.18497 15.457 0.810981 15.0898C0.436994 14.7227 0.25 14.2812 0.25 13.7656V2.51562C0.25 2 0.436994 1.55859 0.810981 1.19141C1.18497 0.824219 1.63455 0.640625 2.15972 0.640625H24.3125C24.8377 0.640625 25.2873 0.824219 25.6612 1.19141C26.0352 1.55859 26.2222 2 26.2222 2.51562V4.39062ZM26.2222 10.3906V5.89063H24.6944V2.51562C24.6944 2.40625 24.6586 2.31641 24.587 2.24609C24.5154 2.17578 24.4239 2.14062 24.3125 2.14062H2.15972C2.04832 2.14062 1.95681 2.17578 1.8852 2.24609C1.81359 2.31641 1.77778 2.40625 1.77778 2.51562V13.7656C1.77778 13.875 1.81359 13.9648 1.8852 14.0352C1.95681 14.1055 2.04832 14.1406 2.15972 14.1406H24.3125C24.4239 14.1406 24.5154 14.1055 24.587 14.0352C24.6586 13.9648 24.6944 13.875 24.6944 13.7656V10.3906H26.2222Z" fill="white"/>
</svg>
