<svg width="26" height="19" viewBox="0 0 26 19" fill="none" xmlns="http://www.w3.org/2000/svg">
<path d="M19.647 5.99526C19.5388 5.88759 19.394 5.82459 19.2414 5.8188C19.0888 5.81301 18.9397 5.86485 18.8236 5.96401L12.2923 11.5515C12.1402 11.6797 12.0166 11.8385 11.9296 12.0174C11.8427 12.1964 11.7942 12.3916 11.7874 12.5905C11.7807 12.7894 11.8157 12.9875 11.8903 13.1719C11.9649 13.3564 12.0774 13.5232 12.2205 13.6614C12.3636 13.7997 12.5341 13.9064 12.7211 13.9746C12.908 14.0428 13.1072 14.071 13.3057 14.0574C13.5042 14.0438 13.6977 13.9887 13.8735 13.8956C14.0494 13.8026 14.2038 13.6736 14.3267 13.5171L19.6923 6.80308C19.7857 6.68622 19.8327 6.53906 19.8243 6.38973C19.8159 6.2404 19.7528 6.0994 19.647 5.9937V5.99526Z" fill="white"/>
<path d="M5.5 12.6406H3" stroke="white" stroke-linecap="round"/>
<path d="M20.5 12.6406H23" stroke="white" stroke-linecap="round"/>
<path d="M7.23665 7.93897L5.5 6.14062" stroke="white" stroke-linecap="round"/>
<path d="M13 5.14062V2.64062" stroke="white" stroke-linecap="round"/>
<path fill-rule="evenodd" clip-rule="evenodd" d="M0.500008 12.6294C0.501642 10.8103 0.900278 9.01355 1.66809 7.36448C2.4359 5.7154 3.55438 4.25378 4.94545 3.08164C6.33652 1.9095 7.96666 1.0551 9.72206 0.578076C11.4775 0.101054 13.3158 0.0129083 15.1088 0.319793C16.9018 0.626678 18.6062 1.3212 20.103 2.35487C21.5999 3.38854 22.8531 4.73645 23.7751 6.3045C24.6972 7.87255 25.2659 9.62295 25.4416 11.4335C25.6172 13.2441 25.3956 15.0712 24.7922 16.7872C24.1016 18.745 21.9094 19.2903 20.2109 18.7403C18.1703 18.0794 15.3047 17.3169 13 17.3169C10.6969 17.3169 7.82813 18.0794 5.78907 18.7403C4.09063 19.2903 1.89845 18.745 1.20782 16.7872C0.73773 15.4515 0.498376 14.0455 0.500008 12.6294ZM13 1.6919C11.2506 1.69145 9.52658 2.11064 7.97268 2.9143C6.41878 3.71795 5.08032 4.88262 4.06964 6.31055C3.05896 7.73848 2.40555 9.38802 2.16424 11.1207C1.92293 12.8534 2.10076 14.6187 2.68282 16.2685C3.00001 17.1669 4.12501 17.6372 5.30782 17.2528C7.37032 16.5872 10.4344 15.7544 13 15.7544C15.5656 15.7544 18.6313 16.5857 20.6922 17.2544C21.875 17.6372 23 17.1669 23.3172 16.2685C23.8993 14.6187 24.0771 12.8534 23.8358 11.1207C23.5945 9.38802 22.9411 7.73848 21.9304 6.31055C20.9197 4.88262 19.5812 3.71795 18.0273 2.9143C16.4734 2.11064 14.7494 1.69145 13 1.6919Z" fill="white"/>
</svg>
