<svg width="24" height="21" viewBox="0 0 24 21" fill="none" xmlns="http://www.w3.org/2000/svg">
<path d="M1.52679 18.0195H4.92411C5.18304 18.0195 5.38839 17.8097 5.38839 17.5552V3.89007C5.38839 3.63114 5.17857 3.42578 4.92411 3.42578H1.52679C1.26786 3.42578 1.0625 3.6356 1.0625 3.89007V17.5552C1.0625 17.8142 1.27232 18.0195 1.52679 18.0195ZM1.99554 4.35435H4.45982V17.0865H1.99554V4.35435Z" fill="white" stroke="white" stroke-width="0.25"/>
<path d="M7.37939 18.0194H10.7767C11.0356 18.0194 11.241 17.8096 11.241 17.5551V8.05511C11.241 7.79618 11.0312 7.59082 10.7767 7.59082H7.37939C7.12047 7.59082 6.91511 7.80064 6.91511 8.05511V17.5551C6.91064 17.814 7.12047 18.0194 7.37939 18.0194ZM7.84368 8.52386H10.308V17.0908H7.84368V8.52386Z" fill="white" stroke="white" stroke-width="0.25"/>
<path d="M13.228 18.0198H16.6253C16.8842 18.0198 17.0896 17.81 17.0896 17.5555V0.778739C17.0896 0.51981 16.8797 0.314453 16.6253 0.314453H13.228C12.969 0.314453 12.7637 0.524274 12.7637 0.778739V17.5555C12.7637 17.8145 12.969 18.0198 13.228 18.0198ZM13.6922 1.24302H16.1565V17.0912H13.6922V1.24302Z" fill="white" stroke="white" stroke-width="0.25"/>
<path d="M22.4729 5.5293H19.0756C18.8167 5.5293 18.6113 5.73912 18.6113 5.99358V17.5561C18.6113 17.815 18.8211 18.0204 19.0756 18.0204H22.4729C22.7319 18.0204 22.9372 17.8105 22.9372 17.5561V5.99358C22.9372 5.73912 22.7274 5.5293 22.4729 5.5293ZM22.0042 17.0918H19.5399V6.46233H22.0042V17.0918Z" fill="white" stroke="white" stroke-width="0.25"/>
<path d="M22.4732 19.0381H1.52679C1.26786 19.0381 1.0625 19.2479 1.0625 19.5024C1.0625 19.7568 1.27232 19.9667 1.52679 19.9667H22.4688C22.7277 19.9667 22.933 19.7568 22.933 19.5024C22.933 19.2479 22.7277 19.0381 22.4732 19.0381Z" fill="white" stroke="white" stroke-width="0.25"/>
</svg>
