<svg width="62" height="64" viewBox="0 0 62 64" fill="none" xmlns="http://www.w3.org/2000/svg">
<path d="M19.9884 0.582001C19.3604 -0.186625 18.1844 -0.18575 17.5572 0.582001C12.5615 6.70126 0.669891 22.7472 0.669891 30.9399C0.669891 40.9218 8.79091 49.0427 18.7729 49.0427C28.7548 49.0427 36.8757 40.9217 36.8757 30.9399C36.8757 22.7413 24.9272 6.63151 19.9884 0.582001ZM18.7727 45.9031C10.5219 45.9031 3.80952 39.1907 3.80952 30.9402C3.80952 24.4782 13.6848 10.5685 18.7727 4.08913C23.8606 10.5685 33.7356 24.4783 33.7356 30.9402C33.7358 39.1907 27.0234 45.9031 18.7727 45.9031Z" fill="#F3F3F3"/>
<path d="M16.6004 15.0139C15.8789 14.5329 14.9044 14.7278 14.4234 15.4493C11.1784 20.3165 8.93918 24.3849 7.7673 27.5418C7.46568 28.3545 7.87993 29.2583 8.69268 29.5599C9.50543 29.8615 10.4089 29.4473 10.7108 28.6345C11.4581 26.6213 13.1619 23.0017 17.0357 17.1911C17.5169 16.4695 17.3221 15.4949 16.6004 15.0139Z" fill="#F3F3F3"/>
<path d="M15.8633 39.1193C13.8954 38.4159 12.243 37.0221 11.2104 35.1944C10.7838 34.4394 9.82577 34.1733 9.07127 34.5999C8.31639 35.0266 8.05014 35.9842 8.47677 36.7391C9.88052 39.2231 12.1283 41.1186 14.8063 42.0759C15.6248 42.3679 16.5217 41.9409 16.813 41.1261C17.105 40.3097 16.6797 39.4111 15.8633 39.1193Z" fill="#F3F3F3"/>
<path d="M50.1364 31.5176C49.5087 30.749 48.3323 30.7496 47.7052 31.5176C46.5657 32.9124 36.5712 45.3265 36.5712 51.6572C36.5712 58.4669 42.1113 64.007 48.9209 64.007C55.7305 64.007 61.2705 58.4669 61.2705 51.6572C61.2703 45.3268 51.2762 32.9123 50.1364 31.5176ZM48.9208 60.8669C43.8424 60.8669 39.7109 56.7356 39.7109 51.6571C39.7109 47.4789 46.3944 38.3288 48.9208 35.0484C51.4614 38.3465 58.1305 47.4842 58.1305 51.6571C58.1305 56.7356 53.9988 60.8669 48.9208 60.8669Z" fill="#F3F3F3"/>
<path d="M47.0831 43.9278C46.3409 43.4792 45.3756 43.7172 44.9273 44.4593C42.9225 47.7763 42.1889 49.7416 41.9264 50.8065C41.719 51.6482 42.2332 52.4988 43.075 52.7065C43.9174 52.9138 44.7676 52.3993 44.975 51.558C45.1136 50.9957 45.6481 49.3366 47.6144 46.0835C48.0631 45.3415 47.8251 44.3765 47.0831 43.9278Z" fill="#F3F3F3"/>
</svg>
