<svg width="108" height="76" viewBox="0 0 108 76" fill="none" xmlns="http://www.w3.org/2000/svg">
<g opacity="0.33">
<path d="M105.167 33.1261L104.635 32.4746L97.3428 23.5506C96.782 22.8645 96.4607 21.8882 96.4607 20.8722V11.3442C96.4607 5.08901 92.6555 0 87.9783 0H58.9262C56.5935 0 54.3123 1.26916 52.668 3.48203L38.9393 21.9523C37.2832 24.1812 36.371 27.1378 36.371 30.2778V31.8432C35.9598 31.8865 35.5493 31.9661 35.1427 32.0929L8.86819 40.2935C5.57829 41.3211 3.08027 44.8616 2.5042 49.3135L0.0677992 68.1298C-0.164399 69.9278 0.205982 71.7586 1.0843 73.1535C1.96219 74.5479 3.24769 75.3476 4.61143 75.3476H11.2661C12.1375 75.3476 12.8435 74.4033 12.8435 73.2379C12.8435 72.0726 12.1375 71.1283 11.2661 71.1283H4.61143C4.02169 71.1283 3.66056 70.6945 3.49777 70.4358C3.33477 70.177 3.07607 69.6262 3.1766 68.8487L5.613 50.0333C5.9451 47.4685 7.30001 45.3913 9.12058 44.5814L24.058 53.1308C25.2752 53.8276 26.551 54.254 27.8603 54.4138L30.222 59.9199C30.5137 60.5995 31.045 60.9801 31.5918 60.9801C31.8581 60.9801 32.1279 60.8901 32.3755 60.7002C33.1312 60.1202 33.3922 58.8311 32.9587 57.8204L31.5584 54.5555L53.2283 55.0967C53.9445 56.3245 54.3342 57.8252 54.3342 59.4012V69.1801C54.3342 70.2543 53.6816 71.1286 52.8796 71.1286H18.6758C17.8044 71.1286 17.0984 72.0728 17.0984 73.2382C17.0984 74.4036 17.8044 75.3478 18.6758 75.3478H52.8792C55.4209 75.3478 57.4886 72.5811 57.4886 69.1801V59.4012C57.4886 56.4393 56.6326 53.6425 55.0775 51.5252L43.0345 35.1539C42.0506 33.8167 40.836 32.8558 39.5255 32.3146V30.2781C39.5255 28.2602 40.1119 26.3598 41.1765 24.9272L48.1063 15.604C48.1094 15.5998 48.113 15.5961 48.1164 15.5919L48.1166 15.5916C49.5762 13.6271 51.6006 12.5003 53.6708 12.5003H62.8056C65.7498 12.5003 68.5286 14.5905 70.0574 17.9547L79.8375 39.4896L80.5316 46.6826C80.6342 47.7465 81.3127 48.5225 82.094 48.5225C82.1614 48.5225 82.2295 48.5166 82.2981 48.5051C83.1621 48.356 83.7722 47.2984 83.6608 46.1429L83.2208 41.5827L89.1347 43.5843C89.9783 43.8703 90.8372 43.1863 91.0507 42.0566C91.2646 40.927 90.7531 39.7796 89.9084 39.4941L82.3723 36.9434L72.7538 15.7641C70.6562 11.1476 66.8443 8.28019 62.8058 8.28019C62.5585 8.28103 53.7777 8.2785 53.5499 8.28103L54.905 6.45802C55.9615 5.03585 57.4268 4.2204 58.9254 4.2204H87.9785C90.9153 4.2204 93.3045 7.4158 93.3045 11.3434V20.8719C93.3045 23.0693 93.9999 25.1798 95.2118 26.663L102.343 35.3896C103.475 36.5443 104.52 38.5107 104.531 40.774V45.2264C103.743 44.4518 102.835 43.8678 101.841 43.5314L97.1238 41.9348C96.2802 41.649 95.4212 42.3326 95.2078 43.4625C94.9939 44.5921 95.5054 45.7395 96.35 46.025L101.067 47.6216C103.106 48.3118 104.531 50.7587 104.531 53.5719V57.3906C104.531 58.4637 103.878 59.3371 103.075 59.3371H88.6126L84.9709 57.3855C82.9907 56.1544 79.9975 56.9096 77.876 59.3371H63.2843C62.413 59.3371 61.7069 60.2814 61.7069 61.4467C61.7069 62.6121 62.413 63.5564 63.2843 63.5564H75.481C74.8846 65.6995 74.7762 68.3399 75.3153 71.1274H70.1655C69.2941 71.1274 68.5881 72.0717 68.5881 73.2371C68.5881 74.4024 69.2941 75.3467 70.1655 75.3467H91.8836C91.9048 75.3467 91.9261 75.3462 91.9473 75.345C94.3646 75.2142 96.0543 73.1915 96.3572 70.0653C96.5631 67.9396 96.0316 65.3971 94.8492 63.5561H103.075C105.618 63.5561 107.686 60.7902 107.686 57.3903V40.7737C107.721 38.151 106.73 35.0183 105.167 33.1261ZM50.1176 50.799L28.8343 50.2673C27.6121 50.2367 26.4225 49.8952 25.2989 49.2519L14.2708 42.9401L35.8591 36.202C37.6246 35.6518 39.5131 36.3837 40.7857 38.1133L50.1176 50.799ZM93.2282 69.5236C93.1264 70.5753 92.7003 71.0712 91.8483 71.1274H79.6057C79.0117 71.1131 78.7703 70.8543 78.6403 70.6605C78.2152 70.0262 78.0373 68.5852 78.1639 66.8055C78.0886 65.3977 78.9238 63.4123 80.4346 62.0476C81.405 61.1691 82.9025 60.6923 83.7588 61.2816L91.341 65.3442C91.3813 65.3659 91.4228 65.3853 91.4644 65.4024C92.6549 65.8919 93.3775 67.9815 93.2282 69.5236Z" fill="#F3F3F3"/>
<path d="M63.3291 75.3842C64.2069 75.3842 64.9185 74.4325 64.9185 73.2585C64.9185 72.0845 64.2069 71.1328 63.3291 71.1328C62.4512 71.1328 61.7396 72.0845 61.7396 73.2585C61.7396 74.4325 62.4512 75.3842 63.3291 75.3842Z" fill="#F3F3F3"/>
</g>
</svg>
