<svg width="15" height="10" viewBox="0 0 15 10" fill="none" xmlns="http://www.w3.org/2000/svg">
<path d="M14.4673 3.42405C14.3886 3.34569 14.2832 3.29984 14.1722 3.29563C14.0611 3.29142 13.9526 3.32914 13.8681 3.40131L9.11509 7.46751C9.00435 7.56081 8.91443 7.67632 8.85114 7.80657C8.78784 7.93681 8.7526 8.07889 8.74767 8.22362C8.74274 8.36834 8.76825 8.51249 8.82253 8.64674C8.87682 8.78098 8.95868 8.90234 9.06282 9.00296C9.16696 9.10358 9.29106 9.18122 9.42709 9.23087C9.56313 9.28051 9.70807 9.30104 9.85254 9.29114C9.997 9.28125 10.1378 9.24114 10.2658 9.17341C10.3938 9.10568 10.5061 9.01184 10.5956 8.89796L14.5003 4.01192C14.5682 3.92688 14.6024 3.81979 14.5963 3.71112C14.5903 3.60245 14.5443 3.49984 14.4673 3.42291V3.42405Z" fill="#111318"/>
<path fill-rule="evenodd" clip-rule="evenodd" d="M11.2856 3.36785C11.263 3.35821 11.2402 3.34867 11.2174 3.33923C10.2509 2.93887 9.21495 2.73281 8.16876 2.73281C7.12257 2.73281 6.08662 2.93887 5.12007 3.33923C4.15351 3.73959 3.27528 4.32641 2.53551 5.06618C1.79575 5.80595 1.20893 6.68418 0.80857 7.65073C0.588755 8.18141 0.427511 8.73301 0.326785 9.29574H0.202148C0.202148 8.17329 0.423231 7.06183 0.852773 6.02483C1.28231 4.98782 1.9119 4.04557 2.70559 3.25188C3.49928 2.45819 4.44153 1.8286 5.47854 1.39906C6.51554 0.969519 7.627 0.748437 8.74945 0.748437C9.8719 0.748437 10.9834 0.969519 12.0204 1.39906C12.3389 1.53099 12.6484 1.68179 12.9475 1.85042L11.2856 3.36785Z" fill="#111318"/>
</svg>
