<svg width="28" height="28" viewBox="0 0 28 28" fill="none" xmlns="http://www.w3.org/2000/svg">
<rect width="28" height="28" rx="6" fill="#F3F3F3"/>
<path d="M14.6667 17.6667C14.6667 17.8436 14.5965 18.0131 14.4714 18.1382C14.3464 18.2632 14.1769 18.3334 14 18.3334C13.8232 18.3334 13.6537 18.2632 13.5286 18.1382C13.4036 18.0131 13.3334 17.8436 13.3334 17.6667C13.3334 17.4899 13.4036 17.3204 13.5286 17.1953C13.6537 17.0703 13.8232 17.0001 14 17.0001C14.1769 17.0001 14.3464 17.0703 14.4714 17.1953C14.5965 17.3204 14.6667 17.4899 14.6667 17.6667ZM14.5 12.1667C14.5 12.0341 14.4474 11.907 14.3536 11.8132C14.2598 11.7194 14.1326 11.6667 14 11.6667C13.8674 11.6667 13.7403 11.7194 13.6465 11.8132C13.5527 11.907 13.5 12.0341 13.5 12.1667V15.1667C13.5 15.2994 13.5527 15.4265 13.6465 15.5203C13.7403 15.6141 13.8674 15.6667 14 15.6667C14.1326 15.6667 14.2598 15.6141 14.3536 15.5203C14.4474 15.4265 14.5 15.2994 14.5 15.1667V12.1667Z" fill="black"/>
<path fill-rule="evenodd" clip-rule="evenodd" d="M12.5573 8.16258C13.1993 7.05258 14.8006 7.05258 15.4426 8.16258L21.4206 18.4986C22.0626 19.6099 21.2606 20.9999 19.9773 20.9999H8.02261C6.73861 20.9999 5.93727 19.6099 6.57927 18.4986L12.5573 8.16258ZM14.5773 8.66324C14.5188 8.56191 14.4346 8.47776 14.3333 8.41925C14.2319 8.36074 14.117 8.32994 13.9999 8.32994C13.8829 8.32994 13.768 8.36074 13.6666 8.41925C13.5653 8.47776 13.4811 8.56191 13.4226 8.66324L7.44527 18.9992C7.3866 19.1006 7.35566 19.2156 7.35557 19.3328C7.35549 19.4499 7.38626 19.565 7.44479 19.6664C7.50332 19.7679 7.58754 19.8521 7.68898 19.9106C7.79042 19.9692 7.90549 20 8.02261 19.9999H19.9773C20.0943 19.9999 20.2093 19.9691 20.3106 19.9106C20.4119 19.8521 20.4961 19.7679 20.5546 19.6666C20.6131 19.5652 20.6439 19.4503 20.6439 19.3332C20.6439 19.2162 20.6131 19.1013 20.5546 18.9999L14.5773 8.66258V8.66324Z" fill="black"/>
</svg>
