<svg width="28" height="28" viewBox="0 0 28 28" fill="none" xmlns="http://www.w3.org/2000/svg">
<rect width="28" height="28" rx="6" fill="#F3F3F3"/>
<g clip-path="url(#clip0_1638_17932)">
<path d="M19.9044 16.8657C19.7671 16.7556 19.5665 16.7777 19.4564 16.9151C19.3107 17.0969 19.1532 17.2741 18.9882 17.4419C18.8648 17.5674 18.8665 17.7693 18.992 17.8927C19.054 17.9537 19.1347 17.9841 19.2154 17.9841C19.2979 17.9841 19.3803 17.9523 19.4427 17.8889C19.6227 17.7058 19.7947 17.5123 19.9538 17.3137C20.0639 17.1763 20.0418 16.9758 19.9044 16.8657Z" fill="black"/>
<path d="M18.6525 18.1904C18.5461 18.0501 18.3462 18.0226 18.2059 18.129C17.0006 19.0426 15.54 19.5721 13.982 19.6602C13.8063 19.6702 13.6719 19.8207 13.6818 19.9965C13.6914 20.1661 13.8319 20.2972 13.9997 20.2972C14.0058 20.2972 14.0119 20.2971 14.018 20.2967C15.7029 20.2013 17.2843 19.6274 18.591 18.637C18.7313 18.5306 18.7588 18.3307 18.6525 18.1904Z" fill="black"/>
<path d="M21.7736 12.2483C21.7736 12.2482 21.7736 12.2483 21.7736 12.2482C21.5918 11.5566 21.3028 10.894 20.9145 10.2788C20.3624 9.40406 19.6353 8.65478 18.7533 8.05169C17.3695 7.10556 15.7259 6.60547 14 6.60547C13.5173 6.60547 13.0325 6.64581 12.5593 6.72537C11.2179 6.95087 9.95175 7.49691 8.89778 8.30447C7.34853 9.4915 6.34594 11.1553 6.07469 12.9894C6.02513 13.3245 6 13.6644 6 13.9999C6 15.3164 6.37903 16.609 7.09609 17.7379C7.7895 18.8297 8.78087 19.7449 9.96306 20.3848C9.96316 20.3848 9.96325 20.3849 9.96334 20.3849C10.6341 20.7479 11.3566 21.0175 12.1107 21.1863C12.7273 21.3243 13.363 21.3943 14 21.3943C15.5472 21.3943 17.0484 20.9854 18.3414 20.2118C19.6045 19.456 20.609 18.3924 21.2465 17.1359C21.7465 16.1502 22 15.0952 22 13.9999C22 13.4092 21.9238 12.8199 21.7736 12.2483ZM18.8798 8.94028C19.2793 9.26444 19.637 9.62522 19.9503 10.0198L19.3202 9.87513C19.1182 9.82872 18.9105 9.87784 18.7506 10.0098C18.5907 10.1417 18.5031 10.3363 18.5103 10.5435C18.5106 10.5521 18.5063 10.5603 18.4991 10.565L18.0363 10.8673C18.0285 10.8724 18.0186 10.8727 18.0105 10.8681L17.3586 10.4968C17.3006 10.4637 17.2707 10.3953 17.2859 10.3302L17.4326 9.70406C17.4483 9.637 17.5074 9.58888 17.5762 9.58697L18.1285 9.57159C18.499 9.56128 18.8074 9.29075 18.8798 8.94028ZM9.95984 18.9411L9.86666 19.5913C7.86375 18.34 6.63744 16.2357 6.63744 13.9999C6.63744 13.8021 6.64706 13.6026 6.66616 13.4036L7.09272 13.4725C7.20012 13.4899 7.30988 13.4987 7.41884 13.4987H7.63491C7.93441 13.4987 8.23188 13.5969 8.47247 13.7753L8.79984 14.018C8.82784 14.0388 8.84609 14.0706 8.84981 14.1052L8.89419 14.5158C8.90134 14.5822 8.85531 14.6425 8.78934 14.6531C8.41712 14.7126 8.14106 15.0417 8.14716 15.4186L8.17047 16.8637C8.17313 17.0279 8.22716 17.1837 8.32678 17.3142L8.84625 17.9948C9.09134 18.316 9.42278 18.5553 9.80472 18.6871C9.91047 18.7235 9.97572 18.8304 9.95984 18.9411ZM12.0132 20.5075C11.474 20.3691 10.9541 20.1744 10.4625 19.9266L10.5908 19.0317C10.65 18.6187 10.4068 18.2204 10.0125 18.0844C9.74969 17.9938 9.52163 17.8291 9.35297 17.6081L8.83353 16.9275C8.81716 16.906 8.80828 16.8804 8.80784 16.8534L8.78453 15.4083C8.78353 15.3464 8.82894 15.2923 8.89009 15.2825C9.29147 15.2183 9.57166 14.8514 9.52797 14.4472L9.48359 14.0367C9.46081 13.8257 9.34997 13.6323 9.1795 13.5059L8.85212 13.2632C8.50244 13.004 8.07016 12.8612 7.63491 12.8612H7.41884C7.34384 12.8612 7.26838 12.8552 7.19444 12.8432L6.75906 12.7728C7.06809 11.2262 7.95666 9.82856 9.28544 8.81044C10.222 8.09281 11.3415 7.59903 12.5308 7.37775C12.7112 7.52784 12.8508 7.72034 12.938 7.94059L12.956 7.98631C13.0013 8.10066 13.0314 8.22059 13.0455 8.34278L13.0616 8.48184C13.0901 8.72919 13.0522 8.98044 12.9522 9.20841L12.7789 9.60325C12.6654 9.86162 12.4793 10.0777 12.2405 10.228L12.0245 10.364C11.8057 10.5017 11.6778 10.7477 11.6907 11.0059L11.7199 11.5893C11.7214 11.6191 11.7075 11.6388 11.6957 11.6502C11.6838 11.6616 11.6634 11.6744 11.6337 11.6717C11.6074 11.6692 11.5842 11.6538 11.5717 11.6306L11.3065 11.138C11.2147 10.9674 11.055 10.8397 10.8683 10.7877L9.93097 10.526C9.68462 10.4573 9.42069 10.4777 9.18788 10.5835L8.96466 10.685C8.49503 10.8985 8.23837 11.4183 8.35437 11.9208C8.40028 12.1199 8.50094 12.3015 8.64534 12.4459L9.25437 13.0549C9.28872 13.0892 9.32162 13.1258 9.35228 13.1636L9.76981 13.6786C9.95419 13.906 10.2275 14.0363 10.5202 14.0362C10.5212 14.0362 10.5222 14.0362 10.5232 14.0362L11.6607 14.0328C11.6611 14.0328 11.6614 14.0328 11.6617 14.0328C11.7782 14.0328 11.8869 14.0952 11.9456 14.1958C12.0822 14.43 12.3125 14.5969 12.5777 14.6537L13.0039 14.745C13.0976 14.7651 13.1777 14.8249 13.2235 14.909L13.4294 15.2864C13.5119 15.4377 13.6368 15.559 13.7904 15.6371L14.7578 16.1287C14.8374 16.1691 14.8833 16.2557 14.8723 16.3443C14.8659 16.3956 14.8411 16.4427 14.8023 16.477L14.4348 16.802C14.3313 16.8937 14.2508 17.0106 14.2022 17.1401L14.1221 17.3537C14.0977 17.4188 14.0469 17.4714 13.9827 17.498L13.5912 17.6603C13.2579 17.7985 13.0424 18.1211 13.0424 18.482C13.0424 18.5226 13.0324 18.5631 13.0136 18.5991L12.0132 20.5075ZM14 20.7569C13.5504 20.7569 13.1017 20.7193 12.6609 20.6449L13.5782 18.895C13.6447 18.7681 13.6799 18.6253 13.6799 18.482C13.6799 18.3797 13.7409 18.2883 13.8354 18.2491L14.2268 18.0868C14.4535 17.9928 14.6329 17.8071 14.719 17.5775L14.7991 17.364C14.8113 17.3316 14.8313 17.3024 14.8572 17.2795L15.2247 16.9544C15.3797 16.8173 15.4792 16.6287 15.5048 16.4234C15.5492 16.069 15.3651 15.7222 15.0467 15.5604L14.0792 15.0688C14.0408 15.0493 14.0096 15.019 13.989 14.9812L13.7832 14.6038C13.6483 14.3564 13.4129 14.1808 13.1375 14.1217L12.7113 14.0304C12.6211 14.0111 12.5427 13.9543 12.4963 13.8747C12.3237 13.5788 12.0041 13.3953 11.6617 13.3953C11.6607 13.3953 11.6598 13.3953 11.6588 13.3953L10.5213 13.3988C10.5209 13.3988 10.5206 13.3988 10.5202 13.3988C10.4207 13.3988 10.3277 13.3545 10.265 13.2772L9.84741 12.7622C9.80284 12.7072 9.75494 12.654 9.70506 12.6042L9.09606 11.9952C9.03622 11.9354 8.99453 11.8601 8.9755 11.7776C8.92744 11.5693 9.03381 11.3538 9.22844 11.2654L9.45166 11.1639C9.54819 11.1201 9.65756 11.1116 9.75969 11.1401L10.6971 11.4017C10.7176 11.4074 10.7352 11.4215 10.7453 11.4402L11.0105 11.9328C11.1242 12.1439 11.3346 12.2835 11.5733 12.3063C11.7805 12.3261 11.9857 12.2548 12.1362 12.111C12.2867 11.9672 12.367 11.7654 12.3567 11.5574L12.3275 10.9741C12.3261 10.9457 12.3401 10.9186 12.3642 10.9034L12.5802 10.7675C12.9272 10.549 13.1978 10.235 13.3626 9.8595L13.5359 9.46466C13.6814 9.13334 13.7363 8.76825 13.6949 8.40875L13.6788 8.26969C13.6583 8.09219 13.6146 7.91791 13.5488 7.75172L13.5307 7.70597C13.4696 7.55166 13.3905 7.40687 13.2959 7.27366H13.2963C13.5301 7.25322 13.7653 7.24294 14 7.24294C15.54 7.24294 17.0078 7.67225 18.2561 8.48612L18.2584 8.78141C18.2591 8.86347 18.1929 8.93209 18.1108 8.93441L17.5586 8.94978C17.2006 8.95972 16.8936 9.21016 16.812 9.55875L16.6653 10.1848C16.5861 10.5228 16.7415 10.8789 17.0431 11.0507L17.695 11.422C17.7973 11.4802 17.9102 11.5092 18.0229 11.5092C18.1489 11.5092 18.2746 11.473 18.3848 11.401L18.8476 11.0987C19.0405 10.9728 19.1553 10.7516 19.1473 10.5214C19.1472 10.5181 19.1469 10.5092 19.1563 10.5015C19.1658 10.4937 19.1743 10.4958 19.1775 10.4964L19.8923 10.6606C19.9101 10.6647 19.9282 10.6681 19.9465 10.6707L20.4518 10.7432C20.6716 11.109 20.8533 11.492 20.9951 11.8878L20.5013 11.7684C20.4817 11.7637 20.4615 11.7596 20.4415 11.7564L19.9024 11.6694C19.317 11.575 18.7217 11.7738 18.3105 12.2015L18.2293 12.2859C17.9888 12.536 17.8261 12.8481 17.7587 13.1885L17.5532 14.2274C17.4815 14.5896 17.5213 14.96 17.6683 15.2987C17.9249 15.89 18.4821 16.3027 19.1224 16.3758L19.2222 16.3872C19.4961 16.4185 19.778 16.3858 20.0374 16.2929L20.3774 16.1711C20.4379 16.1494 20.506 16.1684 20.5466 16.2186L20.5913 16.2737C20.6121 16.2994 20.6241 16.3318 20.6251 16.3648L20.6412 16.9189C19.4205 19.253 16.8232 20.7569 14 20.7569ZM21.0793 15.8634L21.0422 15.8175C20.8894 15.6288 20.6618 15.5248 20.428 15.5248C20.3392 15.5248 20.2494 15.5399 20.1625 15.571L19.8225 15.6927C19.6545 15.753 19.4718 15.7741 19.2946 15.7538L19.1948 15.7424C18.7801 15.6951 18.4192 15.4278 18.2531 15.0449C18.1579 14.8256 18.1321 14.5857 18.1785 14.3512L18.3841 13.3122C18.4277 13.0918 18.5331 12.8897 18.6888 12.7277L18.77 12.6433C19.0363 12.3664 19.4217 12.2376 19.8009 12.2988L20.34 12.3857C20.3438 12.3864 20.3476 12.3871 20.3515 12.3881L21.2022 12.5937C21.3087 13.0546 21.3625 13.5267 21.3625 13.9999C21.3626 14.6382 21.2676 15.2618 21.0793 15.8634Z" fill="black"/>
</g>
<defs>
<clipPath id="clip0_1638_17932">
<rect width="16" height="16" fill="white" transform="translate(6 6)"/>
</clipPath>
</defs>
</svg>
