<svg width="18" height="17" viewBox="0 0 18 17" fill="none" xmlns="http://www.w3.org/2000/svg">
<path d="M1.15032 14.7173C0.759791 15.1078 0.759791 15.741 1.15032 16.1315C1.54084 16.522 2.174 16.522 2.56453 16.1315L1.15032 14.7173ZM16.1431 1.13867L17.1431 1.13867C17.1431 0.873455 17.0378 0.619102 16.8502 0.431565C16.6627 0.244029 16.4084 0.138672 16.1431 0.138672V1.13867ZM1.85742 0.138673C1.30514 0.138673 0.857422 0.586388 0.857422 1.13867C0.857422 1.69096 1.30514 2.13867 1.85742 2.13867L1.85742 0.138673ZM15.1431 15.4244C15.1431 15.9767 15.5909 16.4244 16.1431 16.4244C16.6954 16.4244 17.1431 15.9767 17.1431 15.4244H15.1431ZM2.56453 16.1315L16.8502 1.84578L15.436 0.431565L1.15032 14.7173L2.56453 16.1315ZM1.85742 2.13867L16.1431 2.13867V0.138672L1.85742 0.138673L1.85742 2.13867ZM15.1431 1.13867L15.1431 15.4244H17.1431L17.1431 1.13867L15.1431 1.13867Z" fill="#111318"/>
</svg>
