<svg width="22" height="12" viewBox="0 0 22 12" fill="none" xmlns="http://www.w3.org/2000/svg">
<g clip-path="url(#clip0_812_19050)">
<path d="M2.44444 9.6V2.4H15.2V9.6H2.44444ZM20.7778 3C21.1152 3 21.4032 3.11719 21.6419 3.35156C21.8806 3.58594 22 3.86875 22 4.2V7.8C22 8.13125 21.8806 8.41406 21.6419 8.64844C21.4032 8.88281 21.1152 9 20.7778 9V10.5C20.7778 10.9125 20.6282 11.2656 20.329 11.5594C20.0298 11.8531 19.6701 12 19.25 12H1.52778C1.10764 12 0.747975 11.8531 0.448785 11.5594C0.149595 11.2656 0 10.9125 0 10.5V1.5C0 1.0875 0.149595 0.734375 0.448785 0.440625C0.747975 0.146875 1.10764 0 1.52778 0H19.25C19.6701 0 20.0298 0.146875 20.329 0.440625C20.6282 0.734375 20.7778 1.0875 20.7778 1.5V3ZM20.7778 7.8V4.2H19.5556V1.5C19.5556 1.4125 19.5269 1.34063 19.4696 1.28438C19.4123 1.22813 19.3391 1.2 19.25 1.2H1.52778C1.43866 1.2 1.36545 1.22813 1.30816 1.28438C1.25087 1.34063 1.22222 1.4125 1.22222 1.5V10.5C1.22222 10.5875 1.25087 10.6594 1.30816 10.7156C1.36545 10.7719 1.43866 10.8 1.52778 10.8H19.25C19.3391 10.8 19.4123 10.7719 19.4696 10.7156C19.5269 10.6594 19.5556 10.5875 19.5556 10.5V7.8H20.7778Z" fill="white"/>
</g>
<defs>
<clipPath id="clip0_812_19050">
<rect width="22" height="12" fill="white"/>
</clipPath>
</defs>
</svg>
