<svg width="24" height="24" viewBox="0 0 24 24" fill="none" xmlns="http://www.w3.org/2000/svg">
<g clip-path="url(#clip0_5555_17120)">
<path d="M4.22222 15.7273V9.18182H15.8182V15.7273H4.22222ZM20.8889 9.72727C21.1956 9.72727 21.4575 9.83381 21.6745 10.0469C21.8915 10.2599 22 10.517 22 10.8182V14.0909C22 14.392 21.8915 14.6491 21.6745 14.8622C21.4575 15.0753 21.1956 15.1818 20.8889 15.1818V16.5455C20.8889 16.9205 20.7529 17.2415 20.4809 17.5085C20.2089 17.7756 19.8819 17.9091 19.5 17.9091H3.38889C3.00694 17.9091 2.67998 17.7756 2.40799 17.5085C2.136 17.2415 2 16.9205 2 16.5455V8.36364C2 7.98864 2.136 7.66761 2.40799 7.40057C2.67998 7.13352 3.00694 7 3.38889 7H19.5C19.8819 7 20.2089 7.13352 20.4809 7.40057C20.7529 7.66761 20.8889 7.98864 20.8889 8.36364V9.72727ZM20.8889 14.0909V10.8182H19.7778V8.36364C19.7778 8.28409 19.7517 8.21875 19.6997 8.16761C19.6476 8.11648 19.581 8.09091 19.5 8.09091H3.38889C3.30787 8.09091 3.24132 8.11648 3.18924 8.16761C3.13715 8.21875 3.11111 8.28409 3.11111 8.36364V16.5455C3.11111 16.625 3.13715 16.6903 3.18924 16.7415C3.24132 16.7926 3.30787 16.8182 3.38889 16.8182H19.5C19.581 16.8182 19.6476 16.7926 19.6997 16.7415C19.7517 16.6903 19.7778 16.625 19.7778 16.5455V14.0909H20.8889Z" fill="#111318"/>
</g>
<defs>
<clipPath id="clip0_5555_17120">
<rect width="20" height="10.9091" fill="white" transform="translate(2 7)"/>
</clipPath>
</defs>
</svg>
