<svg width="113" height="76" viewBox="0 0 113 76" fill="none" xmlns="http://www.w3.org/2000/svg">
<rect width="90.4444" height="74" fill="#EFF0F1"/>
<rect width="90.4444" height="13.3611" fill="#CECECE"/>
<rect x="7.19434" y="20.5555" width="14.3889" height="11.3056" fill="#D9D9D9"/>
<rect x="7.19434" y="38.0272" width="14.3889" height="11.3056" fill="#D9D9D9"/>
<rect x="7.19434" y="55.4999" width="14.3889" height="11.3056" fill="#D9D9D9"/>
<rect x="27.75" y="20.5554" width="14.3889" height="11.3056" fill="#D9D9D9"/>
<rect x="27.75" y="38.0271" width="14.3889" height="11.3056" fill="#D9D9D9"/>
<rect x="27.75" y="55.4998" width="14.3889" height="11.3056" fill="#D9D9D9"/>
<rect x="48.3054" y="20.5554" width="14.3889" height="11.3056" fill="#D9D9D9"/>
<rect x="48.3054" y="38.0271" width="14.3889" height="11.3056" fill="#D9D9D9"/>
<rect x="68.8611" y="20.5554" width="14.3889" height="11.3056" fill="#D9D9D9"/>
<rect x="68.8611" y="38.0271" width="14.3889" height="11.3056" fill="#D9D9D9"/>
<rect x="32.8889" y="5.13892" width="24.6667" height="3.08333" fill="#EFF0F1"/>
<path d="M91.1145 41.6389L90.2484 40.1389L89.3824 41.6389L71.0783 73.3426L70.2123 74.8426H71.9443H108.553H110.285L109.419 73.3426L91.1145 41.6389Z" fill="#CECECE" stroke="white" stroke-width="2"/>
<path d="M91.1313 67.622C91.1313 68.4499 90.4602 69.121 89.6323 69.121C88.8044 69.121 88.1333 68.4499 88.1333 67.622C88.1333 66.7942 88.8044 66.123 89.6323 66.123C90.4602 66.123 91.1313 66.7942 91.1313 67.622Z" fill="white"/>
<path d="M88.4331 54.7307H90.8315V64.3243H88.4331V54.7307Z" fill="white"/>
</svg>
