<svg width="28" height="28" viewBox="0 0 28 28" fill="none" xmlns="http://www.w3.org/2000/svg">
<rect width="28" height="28" rx="6" fill="#F3F3F3"/>
<g clip-path="url(#clip0_1638_18076)">
<path d="M14.7017 11.0527C12.6807 11.0527 11.0526 12.6808 11.0526 14.7019C11.0526 16.7229 12.6807 18.351 14.7017 18.351C16.7228 18.351 18.3509 16.7229 18.3509 14.7019C18.3509 12.6808 16.7228 11.0527 14.7017 11.0527ZM14.7017 17.7896C12.9895 17.7896 11.614 16.4141 11.614 14.7019C11.614 12.9896 12.9895 11.6141 14.7017 11.6141C16.414 11.6141 17.7895 12.9896 17.7895 14.7019C17.7895 16.4141 16.414 17.7896 14.7017 17.7896Z" fill="black"/>
<path d="M14.7018 13.5789C14.0843 13.5789 13.579 14.0841 13.579 14.7017C13.579 15.3192 14.0842 15.8245 14.7018 15.8245C15.3194 15.8245 15.8246 15.3192 15.8246 14.7017C15.8246 14.0841 15.3194 13.5789 14.7018 13.5789ZM14.7018 15.2631C14.393 15.2631 14.1404 15.0105 14.1404 14.7017C14.1404 14.3929 14.393 14.1403 14.7018 14.1403C15.0106 14.1403 15.2632 14.3929 15.2632 14.7017C15.2632 15.0105 15.0106 15.2631 14.7018 15.2631Z" fill="black"/>
<path d="M14.7017 13.0174C14.8701 13.0174 14.9824 12.9051 14.9824 12.7367C14.9824 12.5683 14.8701 12.4561 14.7017 12.4561C14.5333 12.4561 14.421 12.5683 14.421 12.7367C14.421 12.9051 14.5333 13.0174 14.7017 13.0174Z" fill="black"/>
<path d="M14.7017 16.386C14.5333 16.386 14.421 16.4983 14.421 16.6667C14.421 16.8351 14.5333 16.9474 14.7017 16.9474C14.8701 16.9474 14.9824 16.8351 14.9824 16.6667C14.9824 16.4983 14.8701 16.386 14.7017 16.386Z" fill="black"/>
<path d="M16.6667 14.4211C16.4983 14.4211 16.386 14.5334 16.386 14.7018C16.386 14.8703 16.4983 14.9825 16.6667 14.9825C16.8351 14.9825 16.9474 14.8702 16.9474 14.7018C16.9474 14.5334 16.8351 14.4211 16.6667 14.4211Z" fill="black"/>
<path d="M12.7369 14.4211C12.5684 14.4211 12.4562 14.5334 12.4562 14.7018C12.4562 14.8703 12.5685 14.9825 12.7369 14.9825C12.9053 14.9825 13.0176 14.8702 13.0176 14.7018C13.0176 14.5334 12.9053 14.4211 12.7369 14.4211Z" fill="black"/>
<path d="M15.2632 7.42134V6.70175C15.2632 6.50525 15.1789 6.33684 15.0386 6.1965C14.8982 6.05616 14.7298 6 14.5333 6C9.90175 6.22456 6.22456 9.90175 6 14.5333C6 14.7298 6.08422 14.9263 6.1965 15.0386C6.33684 15.1789 6.50528 15.2632 6.70175 15.2632H7.42134C7.72616 19.0582 10.866 22 14.7017 22C18.7158 22 22 18.7158 22 14.7017C22 10.866 19.0582 7.72616 15.2632 7.42134ZM6.58947 14.6737C6.58947 14.6456 6.56141 14.6175 6.56141 14.5614C6.78597 10.2105 10.2105 6.78597 14.5614 6.56141C14.6176 6.56141 14.6456 6.58947 14.6737 6.61756C14.6737 6.61756 14.7017 6.64562 14.7017 6.70178V7.40353V8.69475C14.7017 8.75091 14.6456 8.80703 14.5895 8.80703C11.5017 9.00353 9.0035 11.5018 8.807 14.5895C8.807 14.6457 8.75084 14.7018 8.69472 14.7018H7.4035H6.70175C6.64562 14.7017 6.61753 14.6737 6.58947 14.6737ZM14.7017 21.4386C11.1649 21.4386 8.27369 18.7438 7.99297 15.2632H8.69472C9.05963 15.2632 9.36841 14.9825 9.36841 14.6175C9.53681 11.8105 11.8105 9.56491 14.6175 9.36841C14.9824 9.36841 15.2632 9.05963 15.2632 8.69472V7.99297C18.7438 8.27366 21.4386 11.1649 21.4386 14.7017C21.4386 18.407 18.407 21.4386 14.7017 21.4386Z" fill="black"/>
</g>
<defs>
<clipPath id="clip0_1638_18076">
<rect width="16" height="16" fill="white" transform="translate(6 6)"/>
</clipPath>
</defs>
</svg>
