<svg width="18" height="11" viewBox="0 0 18 11" fill="none" xmlns="http://www.w3.org/2000/svg">
<g clip-path="url(#clip0_963_1069)">
<path d="M2.15477 8.14094V2.38094H8.99922V8.14094H2.15477ZM16.8214 2.86094C17.0913 2.86094 17.3218 2.95469 17.5128 3.14219C17.7037 3.32969 17.7992 3.55594 17.7992 3.82094V6.70094C17.7992 6.96594 17.7037 7.19219 17.5128 7.37969C17.3218 7.56719 17.0913 7.66094 16.8214 7.66094V8.86094C16.8214 9.19094 16.7018 9.47344 16.4624 9.70844C16.2231 9.94344 15.9353 10.0609 15.5992 10.0609H1.42144C1.08533 10.0609 0.797598 9.94344 0.558247 9.70844C0.318895 9.47344 0.199219 9.19094 0.199219 8.86094V1.66094C0.199219 1.33094 0.318895 1.04844 0.558247 0.813438C0.797598 0.578437 1.08533 0.460938 1.42144 0.460938H15.5992C15.9353 0.460938 16.2231 0.578437 16.4624 0.813438C16.7018 1.04844 16.8214 1.33094 16.8214 1.66094V2.86094ZM16.8214 6.70094V3.82094H15.8437V1.66094C15.8437 1.59094 15.8207 1.53344 15.7749 1.48844C15.7291 1.44344 15.6705 1.42094 15.5992 1.42094H1.42144C1.35014 1.42094 1.29158 1.44344 1.24575 1.48844C1.19991 1.53344 1.177 1.59094 1.177 1.66094V8.86094C1.177 8.93094 1.19991 8.98844 1.24575 9.03344C1.29158 9.07844 1.35014 9.10094 1.42144 9.10094H15.5992C15.6705 9.10094 15.7291 9.07844 15.7749 9.03344C15.8207 8.98844 15.8437 8.93094 15.8437 8.86094V6.70094H16.8214Z" fill="#111318"/>
<rect x="2.16357" y="2.38574" width="6.8358" height="5.75617" fill="#111318"/>
</g>
<defs>
<clipPath id="clip0_963_1069">
<rect width="17.6" height="9.6" fill="white" transform="translate(0.199219 0.460938)"/>
</clipPath>
</defs>
</svg>
