<svg width="28" height="28" viewBox="0 0 28 28" fill="none" xmlns="http://www.w3.org/2000/svg">
<rect width="28" height="28" rx="6" fill="#F3F3F3"/>
<g clip-path="url(#clip0_1638_23719)">
<path d="M11.2016 6C11.1392 5.99986 11.0777 6.01431 11.0219 6.04219L6.22187 8.44219C6.15529 8.47531 6.09925 8.52634 6.06006 8.58955C6.02087 8.65275 6.00007 8.72563 6 8.8V21.6C6.00007 21.6681 6.01751 21.735 6.05067 21.7945C6.08383 21.8539 6.13162 21.9039 6.18951 21.9398C6.2474 21.9756 6.31347 21.996 6.38147 21.9992C6.44948 22.0024 6.51716 21.9881 6.57812 21.9578L11.2125 19.6406L16.6422 21.9672C16.6955 21.9901 16.7532 22.0011 16.8112 21.9995C16.8692 21.9979 16.9262 21.9837 16.9781 21.9578L18.6359 21.1281L18.0406 20.5328L16.7875 21.1594L12.7109 19.4125C12.3096 19.2994 11.9303 19.1347 11.5781 18.9266L11.3578 18.8328C11.3045 18.8099 11.2468 18.7989 11.1888 18.8005C11.1308 18.8021 11.0738 18.8164 11.0219 18.8422L6.8 20.9531V9.04688L11.2125 6.84063L16.6422 9.16719C16.6955 9.19009 16.7532 9.20111 16.8112 9.19949C16.8692 9.19787 16.9262 9.18365 16.9781 9.15781L21.2 7.04688V18.9531L20.3031 19.4016L20.8484 19.9469C20.8651 19.9636 20.8812 19.9808 20.8969 19.9984L21.7781 19.5578C21.8447 19.5247 21.9007 19.4737 21.9399 19.4105C21.9791 19.3473 21.9999 19.2744 22 19.2V6.4C21.9999 6.33192 21.9825 6.26499 21.9493 6.20553C21.9162 6.14608 21.8684 6.09607 21.8105 6.06024C21.7526 6.02442 21.6865 6.00395 21.6185 6.00079C21.5505 5.99763 21.4828 6.01188 21.4219 6.04219L16.7875 8.35938L11.3578 6.03281C11.3085 6.01149 11.2553 6.00033 11.2016 6ZM11.1937 7.59375C11.1412 7.59457 11.0894 7.60573 11.0412 7.62659C10.9929 7.64745 10.9493 7.6776 10.9127 7.71533C10.8762 7.75305 10.8474 7.79761 10.8281 7.84645C10.8087 7.8953 10.7992 7.94747 10.8 8V11.2344C11.0457 11.0131 11.313 10.8175 11.6 10.65V8C11.6008 7.94642 11.5909 7.89322 11.5708 7.84355C11.5507 7.79388 11.5208 7.74876 11.4829 7.71087C11.445 7.67298 11.3999 7.64309 11.3502 7.62297C11.3005 7.60285 11.2473 7.59291 11.1937 7.59375ZM16.7938 9.99375C16.7412 9.99457 16.6894 10.0057 16.6412 10.0266C16.5929 10.0474 16.5493 10.0776 16.5127 10.1153C16.4762 10.153 16.4474 10.1976 16.4281 10.2465C16.4087 10.2953 16.3992 10.3475 16.4 10.4V10.65C16.687 10.8175 16.9543 11.0131 17.2 11.2344V10.4C17.2008 10.3464 17.1909 10.2932 17.1708 10.2435C17.1507 10.1939 17.1208 10.1488 17.0829 10.1109C17.045 10.073 16.9999 10.0431 16.9502 10.023C16.9005 10.0028 16.8473 9.99291 16.7938 9.99375ZM14 10.7938C11.7956 10.7938 10 12.5893 10 14.7938C10 16.9982 11.7956 18.7938 14 18.7938C14.9581 18.7938 15.8274 18.4411 16.5172 17.8766L19.7172 21.0781C19.7544 21.1153 19.7986 21.1447 19.8472 21.1648C19.8959 21.1848 19.948 21.1951 20.0006 21.195C20.0531 21.195 20.1052 21.1845 20.1538 21.1643C20.2023 21.1442 20.2465 21.1146 20.2836 21.0773C20.3207 21.0401 20.3502 20.9959 20.3702 20.9473C20.3903 20.8987 20.4006 20.8466 20.4005 20.794C20.4004 20.7414 20.39 20.6893 20.3698 20.6408C20.3496 20.5922 20.3201 20.5481 20.2828 20.5109L17.0828 17.3109C17.6473 16.6212 18 15.7518 18 14.7938C18 12.5893 16.2044 10.7938 14 10.7938ZM14 11.5938C15.772 11.5938 17.2 13.0217 17.2 14.7938C17.2 16.5658 15.772 17.9938 14 17.9938C12.228 17.9938 10.8 16.5658 10.8 14.7938C10.8 13.0217 12.228 11.5938 14 11.5938ZM16.4297 18.9219C16.4201 18.9276 16.4096 18.9319 16.4 18.9375V20C16.3993 20.053 16.409 20.1056 16.4288 20.1548C16.4486 20.204 16.4779 20.2488 16.5151 20.2865C16.5524 20.3243 16.5967 20.3542 16.6456 20.3747C16.6945 20.3952 16.747 20.4057 16.8 20.4057C16.853 20.4057 16.9055 20.3952 16.9544 20.3747C17.0033 20.3542 17.0476 20.3243 17.0849 20.2865C17.1221 20.2488 17.1514 20.204 17.1712 20.1548C17.191 20.1056 17.2007 20.053 17.2 20V19.6922L16.4297 18.9219Z" fill="#222222"/>
</g>
<defs>
<clipPath id="clip0_1638_23719">
<rect width="16" height="16" fill="white" transform="translate(6 6)"/>
</clipPath>
</defs>
</svg>
