<svg width="28" height="28" viewBox="0 0 28 28" fill="none" xmlns="http://www.w3.org/2000/svg">
<rect width="28" height="28" rx="6" fill="#F3F3F3"/>
<g clip-path="url(#clip0_1638_17816)">
<path d="M10 13.7378V18H14.2622L13.3733 17.1111H10.8889V14.6267L10 13.7378Z" fill="black"/>
<path d="M21.4978 20.3511L20.2222 19.0578V20.2223H7.77778V18.3778H8.66667V17.6667H7.77778V14.7111H8.66667V14H7.77778V11.1556H8.66667V10.4445H7.77778V7.96003L14.8622 15.0045V13.7511L7.64889 6.57337C7.58673 6.51069 7.50731 6.46794 7.42075 6.45058C7.3342 6.43321 7.24443 6.44202 7.1629 6.47587C7.08137 6.50972 7.01177 6.56709 6.96297 6.64065C6.91417 6.71422 6.88838 6.80065 6.88889 6.88892V20.6667C6.88889 20.7846 6.93572 20.8976 7.01907 20.981C7.10242 21.0643 7.21546 21.1111 7.33334 21.1111H21.1822C21.2705 21.1117 21.3569 21.0859 21.4305 21.0371C21.5041 20.9883 21.5614 20.9187 21.5953 20.8371C21.6291 20.7556 21.6379 20.6658 21.6206 20.5793C21.6032 20.4927 21.5605 20.4133 21.4978 20.3511Z" fill="black"/>
<path d="M16.6667 19.3334H18.4444C18.6802 19.3334 18.9063 19.2398 19.073 19.0731C19.2397 18.9064 19.3333 18.6803 19.3333 18.4445V9.86677L18.3111 7.98677C18.232 7.8498 18.1179 7.7364 17.9804 7.65827C17.8429 7.58015 17.687 7.54012 17.5289 7.54232C17.3672 7.54361 17.2089 7.58898 17.071 7.67356C16.9332 7.75814 16.821 7.87873 16.7467 8.02232L15.7778 9.87566V18.4445C15.7778 18.6803 15.8714 18.9064 16.0381 19.0731C16.2048 19.2398 16.4309 19.3334 16.6667 19.3334ZM16.6667 10.089L17.5289 8.41343L18.4444 10.0934V16.6668H16.6667V10.089ZM16.6667 17.3912H18.4444V18.4757H16.6667V17.3912Z" fill="black"/>
</g>
<defs>
<clipPath id="clip0_1638_17816">
<rect width="16" height="16" fill="white" transform="translate(6 6)"/>
</clipPath>
</defs>
</svg>
