<svg width="28" height="28" viewBox="0 0 28 28" fill="none" xmlns="http://www.w3.org/2000/svg">
<rect width="28" height="28" rx="6" fill="#F3F3F3"/>
<g clip-path="url(#clip0_5555_17295)">
<path d="M7.51854 17.106V11.6514H17.1818V17.106H7.51854ZM21.4074 12.106C21.663 12.106 21.8812 12.1948 22.0621 12.3723C22.2429 12.5499 22.3334 12.7641 22.3334 13.0151V15.7423C22.3334 15.9933 22.2429 16.2075 22.0621 16.3851C21.8812 16.5627 21.663 16.6514 21.4074 16.6514V17.7878C21.4074 18.1003 21.2941 18.3678 21.0674 18.5904C20.8408 18.8129 20.5683 18.9242 20.25 18.9242H6.82409C6.50581 18.9242 6.23333 18.8129 6.00668 18.5904C5.78002 18.3678 5.66669 18.1003 5.66669 17.7878V10.9696C5.66669 10.6571 5.78002 10.3896 6.00668 10.1671C6.23333 9.94452 6.50581 9.83325 6.82409 9.83325H20.25C20.5683 9.83325 20.8408 9.94452 21.0674 10.1671C21.2941 10.3896 21.4074 10.6571 21.4074 10.9696V12.106ZM21.4074 15.7423V13.0151H20.4815V10.9696C20.4815 10.9033 20.4598 10.8489 20.4164 10.8063C20.373 10.7636 20.3175 10.7423 20.25 10.7423H6.82409C6.75658 10.7423 6.70112 10.7636 6.65772 10.8063C6.61431 10.8489 6.59261 10.9033 6.59261 10.9696V17.7878C6.59261 17.8541 6.61431 17.9085 6.65772 17.9512C6.70112 17.9938 6.75658 18.0151 6.82409 18.0151H20.25C20.3175 18.0151 20.373 17.9938 20.4164 17.9512C20.4598 17.9085 20.4815 17.8541 20.4815 17.7878V15.7423H21.4074Z" fill="#111318"/>
</g>
<defs>
<clipPath id="clip0_5555_17295">
<rect width="16.6667" height="9.09091" fill="white" transform="translate(5.66669 9.83325)"/>
</clipPath>
</defs>
</svg>
