<svg width="18" height="18" viewBox="0 0 18 18" fill="none" xmlns="http://www.w3.org/2000/svg">
<path d="M17.2162 3.96651C17.2162 6.2738 14.2497 8.25147 14.2497 8.25147C14.2497 8.25147 11.2832 6.2738 11.2832 3.96651C11.2832 3.17974 11.5957 2.4252 12.1521 1.86887C12.7084 1.31254 13.4629 1 14.2497 1C15.0365 1 15.791 1.31254 16.3474 1.86887C16.9037 2.4252 17.2162 3.17974 17.2162 3.96651Z" stroke="white" stroke-linecap="round" stroke-linejoin="round"/>
<path d="M14.2506 4.95521C14.7967 4.95521 15.2394 4.5125 15.2394 3.96638C15.2394 3.42026 14.7967 2.97754 14.2506 2.97754C13.7044 2.97754 13.2617 3.42026 13.2617 3.96638C13.2617 4.5125 13.7044 4.95521 14.2506 4.95521Z" stroke="white" stroke-linecap="round" stroke-linejoin="round"/>
<path d="M6.93302 11.8776C6.93302 14.1849 3.96651 16.1626 3.96651 16.1626C3.96651 16.1626 1 14.1849 1 11.8776C1 11.0909 1.31254 10.3363 1.86887 9.78C2.4252 9.22368 3.17974 8.91113 3.96651 8.91113C4.75328 8.91113 5.50782 9.22368 6.06415 9.78C6.62048 10.3363 6.93302 11.0909 6.93302 11.8776Z" stroke="white" stroke-linecap="round" stroke-linejoin="round"/>
<path d="M3.96735 12.8663C4.51347 12.8663 4.95619 12.4236 4.95619 11.8775C4.95619 11.3314 4.51347 10.8887 3.96735 10.8887C3.42123 10.8887 2.97852 11.3314 2.97852 11.8775C2.97852 12.4236 3.42123 12.8663 3.96735 12.8663Z" stroke="white" stroke-linecap="round" stroke-linejoin="round"/>
<path d="M5.5 16.3887C9.19166 17.4434 16.6409 16.9523 15.5 12.3887C14.8333 9.72201 3.73603 9.17974 12.8333 8.38867" stroke="white" stroke-linecap="round"/>
</svg>
