<svg width="18" height="11" viewBox="0 0 18 11" fill="none" xmlns="http://www.w3.org/2000/svg">
<path d="M17.8339 3.34842C17.7355 3.25047 17.6037 3.19317 17.4649 3.1879C17.3262 3.18263 17.1905 3.22979 17.0849 3.32L11.1436 8.40275C11.0052 8.51938 10.8928 8.66377 10.8137 8.82657C10.7346 8.98938 10.6905 9.16698 10.6843 9.34788C10.6782 9.52879 10.7101 9.70897 10.7779 9.87678C10.8458 10.0446 10.9481 10.1963 11.0783 10.3221C11.2085 10.4478 11.3636 10.5449 11.5336 10.6069C11.7037 10.669 11.8848 10.6947 12.0654 10.6823C12.246 10.6699 12.422 10.6198 12.582 10.5351C12.742 10.4505 12.8824 10.3332 12.9942 10.1908L17.8751 4.08326C17.9601 3.97697 18.0028 3.84309 17.9952 3.70726C17.9876 3.57142 17.9302 3.44316 17.8339 3.347V3.34842Z" fill="white"/>
<path fill-rule="evenodd" clip-rule="evenodd" d="M13.8564 3.27528C13.8274 3.26296 13.7984 3.25077 13.7693 3.23872C12.5611 2.73827 11.2661 2.4807 9.95841 2.4807C8.65067 2.4807 7.35574 2.73827 6.14755 3.23872C4.93935 3.73917 3.84156 4.47269 2.91685 5.3974C1.99214 6.32211 1.25862 7.4199 0.758175 8.62809C0.483435 9.29137 0.281894 9.9808 0.155983 10.6841H0C0 9.28107 0.276353 7.89175 0.81328 6.59549C1.35021 5.29923 2.13719 4.12142 3.12931 3.12931C4.12142 2.1372 5.29923 1.35021 6.59549 0.813281C7.89175 0.276353 9.28107 0 10.6841 0C12.0872 0 13.4765 0.276353 14.7728 0.813281C15.1716 0.978476 15.5592 1.16734 15.9336 1.37857L13.8564 3.27528Z" fill="white"/>
</svg>
