<svg width="17" height="13" viewBox="0 0 17 13" fill="none" xmlns="http://www.w3.org/2000/svg">
<path d="M8.65625 2.49316C8.78886 2.49316 8.91603 2.54584 9.0098 2.63961C9.10357 2.73338 9.15625 2.86056 9.15625 2.99316V4.49316C9.15625 4.62577 9.10357 4.75295 9.0098 4.84672C8.91603 4.94049 8.78886 4.99316 8.65625 4.99316C8.52364 4.99316 8.39646 4.94049 8.3027 4.84672C8.20893 4.75295 8.15625 4.62577 8.15625 4.49316V2.99316C8.15625 2.86056 8.20893 2.73338 8.3027 2.63961C8.39646 2.54584 8.52364 2.49316 8.65625 2.49316ZM4.38825 4.22516C4.48201 4.13143 4.60917 4.07877 4.74175 4.07877C4.87433 4.07877 5.00149 4.13143 5.09525 4.22516L6.01025 5.13916C6.05674 5.18565 6.09361 5.24084 6.11877 5.30158C6.14393 5.36232 6.15688 5.42742 6.15688 5.49316C6.15688 5.55891 6.14393 5.62401 6.11877 5.68475C6.09361 5.74549 6.05674 5.80068 6.01025 5.84716C5.96376 5.89365 5.90857 5.93053 5.84783 5.95569C5.78709 5.98085 5.72199 5.9938 5.65625 5.9938C5.59051 5.9938 5.52541 5.98085 5.46467 5.95569C5.40393 5.93053 5.34874 5.89365 5.30225 5.84716L4.38825 4.93216C4.29451 4.8384 4.24186 4.71125 4.24186 4.57866C4.24186 4.44608 4.29451 4.31893 4.38825 4.22516ZM2.65625 8.49316C2.65625 8.36056 2.70893 8.23338 2.8027 8.13961C2.89646 8.04584 3.02364 7.99316 3.15625 7.99316H4.74225C4.87486 7.99316 5.00203 8.04584 5.0958 8.13961C5.18957 8.23338 5.24225 8.36056 5.24225 8.49316C5.24225 8.62577 5.18957 8.75295 5.0958 8.84672C5.00203 8.94049 4.87486 8.99316 4.74225 8.99316H3.15625C3.02364 8.99316 2.89646 8.94049 2.8027 8.84672C2.70893 8.75295 2.65625 8.62577 2.65625 8.49316ZM12.1562 8.49316C12.1562 8.36056 12.2089 8.23338 12.3027 8.13961C12.3965 8.04584 12.5236 7.99316 12.6562 7.99316H14.1562C14.2889 7.99316 14.416 8.04584 14.5098 8.13961C14.6036 8.23338 14.6562 8.36056 14.6562 8.49316C14.6562 8.62577 14.6036 8.75295 14.5098 8.84672C14.416 8.94049 14.2889 8.99316 14.1562 8.99316H12.6562C12.5236 8.99316 12.3965 8.94049 12.3027 8.84672C12.2089 8.75295 12.1562 8.62577 12.1562 8.49316ZM12.9102 4.24716C12.841 4.17825 12.7483 4.13793 12.6507 4.13423C12.553 4.13052 12.4575 4.1637 12.3832 4.22716L8.20325 7.80316C8.10586 7.88522 8.02677 7.9868 7.97111 8.10135C7.91545 8.21589 7.88445 8.34084 7.88012 8.46812C7.87579 8.5954 7.89822 8.72217 7.94596 8.84023C7.9937 8.95829 8.06569 9.06502 8.15728 9.15351C8.24886 9.242 8.358 9.31028 8.47764 9.35394C8.59727 9.3976 8.72474 9.41566 8.85179 9.40695C8.97884 9.39825 9.10265 9.36297 9.21522 9.30341C9.32778 9.24384 9.42659 9.16132 9.50525 9.06116L12.9392 4.76416C12.999 4.68938 13.0291 4.59519 13.0237 4.49962C13.0184 4.40405 12.978 4.31381 12.9102 4.24616V4.24716Z" fill="white"/>
<path fill-rule="evenodd" clip-rule="evenodd" d="M0.656255 8.49282C0.657301 7.32862 0.912428 6.17867 1.40383 5.12327C1.89523 4.06786 2.61105 3.13242 3.50134 2.38225C4.39162 1.63208 5.43491 1.08526 6.55837 0.779968C7.68183 0.474674 8.85838 0.418261 10.0059 0.614668C11.1534 0.811074 12.2442 1.25557 13.2022 1.91711C14.1602 2.57866 14.9622 3.44133 15.5523 4.44488C16.1425 5.44843 16.5064 6.56869 16.6189 7.72745C16.7313 8.8862 16.5894 10.0555 16.2033 11.1538C15.7613 12.4068 14.3583 12.7558 13.2713 12.4038C11.9653 11.9808 10.1313 11.4928 8.65625 11.4928C7.18225 11.4928 5.34625 11.9808 4.04125 12.4038C2.95425 12.7558 1.55126 12.4068 1.10926 11.1538C0.808397 10.2989 0.655211 9.39909 0.656255 8.49282ZM8.65625 1.49282C7.53663 1.49253 6.43326 1.76081 5.43877 2.27515C4.44427 2.78949 3.58766 3.53487 2.94082 4.44875C2.29399 5.36263 1.8758 6.41833 1.72136 7.52726C1.56692 8.63618 1.68074 9.76597 2.05325 10.8218C2.25625 11.3968 2.97625 11.6978 3.73325 11.4518C5.05325 11.0258 7.01425 10.4928 8.65625 10.4928C10.2983 10.4928 12.2603 11.0248 13.5793 11.4528C14.3363 11.6978 15.0563 11.3968 15.2593 10.8218C15.6318 9.76597 15.7456 8.63618 15.5911 7.52726C15.4367 6.41833 15.0185 5.36263 14.3717 4.44875C13.7249 3.53487 12.8682 2.78949 11.8737 2.27515C10.8792 1.76081 9.77588 1.49253 8.65625 1.49282Z" fill="white"/>
</svg>
