<svg width="41" height="21" viewBox="0 0 41 21" fill="none" xmlns="http://www.w3.org/2000/svg">
<path opacity="0.5" fill-rule="evenodd" clip-rule="evenodd" d="M32.4811 1.29265C31.8069 2.0377 31.8657 3.34853 32.6003 3.94332C34.3125 5.32967 36.579 3.1967 35.224 1.47401C34.5317 0.59385 33.1937 0.505259 32.4811 1.29265ZM10.722 2.07428C9.96384 2.53658 9.35651 3.47345 9.35651 4.18087C9.35651 4.72339 11.0029 4.41711 11.6105 3.76117C12.118 3.21368 12.3179 3.14652 12.7512 3.37858C13.7743 3.92607 13.2556 5.47053 12.0482 5.47053C11.5546 5.47053 11.4472 5.61061 11.4472 6.25452C11.4472 6.92196 11.547 7.03851 12.1177 7.03851C13.2114 7.03851 13.7991 7.49636 13.7991 8.3483C13.7991 9.80443 11.8506 10.3715 11.1764 9.11138C10.7977 8.40422 9.09518 8.38985 9.09518 9.09387C9.09518 9.362 9.32646 9.87525 9.60895 10.2346C11.236 12.303 15.2208 11.5807 15.7612 9.11948C15.9705 8.16641 15.302 6.61333 14.5847 6.38571L14.0158 6.20513L14.6124 5.5701C16.0139 4.07843 14.7182 1.54927 12.5536 1.55162C12.0169 1.55215 11.1926 1.78734 10.722 2.07428ZM26.343 2.00843C24.9982 2.68005 24.5144 3.85708 24.5142 6.45888C24.5139 7.75221 24.665 8.98569 24.89 9.52376C25.8736 11.8783 29.5009 12.1595 30.9288 9.99181C31.6817 8.84901 31.7886 5.1261 31.1122 3.59732C30.2807 1.71731 28.2679 1.04673 26.343 2.00843ZM34.3919 1.86417C34.8284 2.3006 34.7832 2.98999 34.2916 3.39818C33.477 4.07424 32.456 2.76367 33.148 1.93003C33.5309 1.46852 33.973 1.44526 34.3919 1.86417ZM18.282 4.18792C16.8018 6.375 16.6738 6.67683 16.6738 7.98113C16.6738 9.22088 16.7819 9.51618 17.5393 10.3425C19.1167 12.0639 22.0166 11.8049 23.2175 9.83501C24.5594 7.63435 23.1349 4.68654 20.7291 4.68654H20.0546L21.1164 3.24923L22.1782 1.81191H21.034H19.8902L18.282 4.18792ZM29.1523 3.85839C29.3582 4.11397 29.4789 5.1146 29.4789 6.56577C29.4789 8.51947 29.3998 8.94701 28.9563 9.39048C28.3137 10.0331 27.8746 10.049 27.1447 9.45582C26.6263 9.03455 26.5881 8.79361 26.6587 6.39224C26.7305 3.94044 26.7721 3.76744 27.3603 3.47475C28.0617 3.12588 28.6665 3.2555 29.1523 3.85839ZM5.12061 7.27267C-5.64384 11.16 1.48315 17.088 17.9216 17.92L21.3777 18.0949V19.4243V20.7539L23.27 18.8614L25.1625 16.9691L23.27 15.0768L21.3777 13.1842V14.5541V15.9237H19.3148C14.1736 15.9237 7.48434 14.7399 4.70927 13.3389C2.09336 12.0187 1.64544 10.8038 3.25367 9.39179C4.20125 8.55972 6.18788 7.56117 6.89556 7.56117C7.09914 7.56117 7.26587 7.32598 7.26587 7.03851C7.26587 6.75105 7.2366 6.52239 7.20053 6.53049C7.16447 6.53859 6.22865 6.87257 5.12061 7.27267ZM21.5311 7.16735C22.0705 7.99028 21.846 8.9815 20.9943 9.53944C19.4177 10.5727 17.6616 8.40135 18.9356 6.99383C19.5918 6.2689 21.0043 6.36324 21.5311 7.16735ZM33.3989 7.05655C33.3989 7.33408 33.5656 7.56117 33.7692 7.56117C34.5161 7.56117 36.689 8.66137 37.5148 9.45791C37.9818 9.90844 38.3642 10.532 38.3642 10.8437C38.3642 12.7616 34.5992 14.3978 27.5843 15.5281C26.6827 15.6734 26.6043 15.7547 26.6043 16.5454C26.6043 17.0179 26.666 17.4664 26.7412 17.5416C26.9673 17.7677 31.2761 17.0103 33.7488 16.31C42.241 13.9047 42.9591 9.76602 35.3293 7.2008C33.4715 6.57622 33.3989 6.57073 33.3989 7.05655Z" fill="white"/>
</svg>
