<svg width="17" height="17" viewBox="0 0 17 17" fill="none" xmlns="http://www.w3.org/2000/svg">
<path opacity="0.5" fill-rule="evenodd" clip-rule="evenodd" d="M5.56573 0.839979C4.26234 1.0712 3.1772 1.64905 2.2664 2.597C0.848025 4.07317 0.297 6.13994 0.795121 8.11539C1.06835 9.19899 1.55588 10.0533 2.35861 10.8552C3.04609 11.5419 3.78574 12.0007 4.69673 12.3056C5.34817 12.5236 5.71956 12.5772 6.57211 12.5763C7.63578 12.5752 8.32192 12.4127 9.2719 11.9367L9.71167 11.7164L12.1895 14.1881C13.7472 15.7421 14.7229 16.6816 14.8171 16.7186C14.935 16.7647 14.9952 16.7655 15.1005 16.722C15.2922 16.6427 16.5665 15.3389 16.606 15.1816C16.6257 15.1035 16.6133 15.001 16.5743 14.9187C16.5391 14.8446 15.4039 13.6654 14.0515 12.2982L11.5926 9.81261L11.7588 9.49687C12.0154 9.00897 12.2329 8.40617 12.3426 7.87873C12.4759 7.23736 12.4874 6.15099 12.3667 5.58258C12.0978 4.31521 11.5513 3.31906 10.6421 2.43883C9.63564 1.4645 8.4404 0.914091 7.06715 0.792657C6.37704 0.731618 6.13326 0.739305 5.56573 0.839979ZM7.60619 2.12507C8.45183 2.3411 9.12189 2.70513 9.72559 3.27639C10.3738 3.88987 10.7798 4.54404 11.033 5.38303C11.1388 5.73348 11.1577 5.89141 11.1747 6.56984C11.1931 7.29647 11.186 7.38531 11.076 7.81272C10.662 9.42069 9.44701 10.6867 7.84403 11.1802C7.45554 11.2998 7.38241 11.307 6.55654 11.3066C5.52278 11.3061 5.23047 11.2452 4.48004 10.8739C3.32582 10.3029 2.41041 9.20576 2.03833 7.94746C1.89326 7.45689 1.83772 6.55484 1.91667 5.97142C2.04773 5.00294 2.55995 4.01968 3.30061 3.31478C3.90219 2.74223 4.59714 2.35569 5.3955 2.14956C5.97104 2.00097 7.07263 1.98877 7.60619 2.12507ZM5.6579 4.63647V5.71824H4.57493H3.49195V6.40873V7.09922L4.09105 7.10497C4.42055 7.10815 4.71087 7.11593 4.73622 7.12223C4.76157 7.12854 4.97931 7.13632 5.2201 7.1395L5.6579 7.14525V8.22702V9.30878H6.34916H7.04042V8.22702V7.14525L7.47822 7.1395C7.719 7.13632 7.93675 7.12854 7.9621 7.12223C7.98744 7.11593 8.28298 7.10815 8.61879 7.10497L9.22941 7.09922L9.22406 6.42024L9.21867 5.74125L8.12957 5.72892L7.04042 5.71658V4.63564V3.55471H6.34916H5.6579V4.63647Z" fill="white"/>
</svg>
