<svg width="12" height="13" viewBox="0 0 12 13" fill="none" xmlns="http://www.w3.org/2000/svg">
<path d="M0.46967 10.9697C0.176777 11.2626 0.176777 11.7374 0.46967 12.0303C0.762563 12.3232 1.23744 12.3232 1.53033 12.0303L0.46967 10.9697ZM11 1.5L11.75 1.5C11.75 1.30109 11.671 1.11032 11.5303 0.96967C11.3897 0.829018 11.1989 0.75 11 0.75V1.5ZM1 0.750001C0.585786 0.750001 0.25 1.08579 0.25 1.5C0.25 1.91421 0.585786 2.25 1 2.25L1 0.750001ZM10.25 11.5C10.25 11.9142 10.5858 12.25 11 12.25C11.4142 12.25 11.75 11.9142 11.75 11.5H10.25ZM1.53033 12.0303L11.5303 2.03033L10.4697 0.96967L0.46967 10.9697L1.53033 12.0303ZM1 2.25L11 2.25V0.75L1 0.750001L1 2.25ZM10.25 1.5L10.25 11.5H11.75L11.75 1.5L10.25 1.5Z" fill="#111318"/>
</svg>
