<svg width="28" height="28" viewBox="0 0 28 28" fill="none" xmlns="http://www.w3.org/2000/svg">
<rect width="28" height="28" rx="6" fill="#F3F3F3"/>
<path d="M7.41938 9.07384C9.77871 5.93128 14.6659 5.01724 18.1439 7.17996C21.5786 9.31459 22.8417 13.421 21.4341 17.2729C20.106 20.9106 16.6063 22.3511 14.0841 20.5214C13.1396 19.8361 12.7728 18.9766 12.5963 17.5811L12.5112 16.789L12.4751 16.4696C12.3764 15.7201 12.2255 15.3847 11.9093 15.2081C11.48 14.969 11.1935 14.9633 10.6294 15.1816L10.3477 15.2988L10.204 15.3614C9.39031 15.7145 8.84942 15.8389 8.1649 15.6952L8.0044 15.6575L7.87279 15.6198C5.63464 14.9264 5.30321 11.8906 7.41938 9.07384ZM8.20903 14.4634L8.30774 14.4931L8.41528 14.5172C8.76757 14.587 9.06851 14.5292 9.56846 14.323L10.0516 14.1167C11.0162 13.7211 11.6445 13.6834 12.496 14.1568C13.2318 14.5677 13.5191 15.1985 13.6652 16.2915L13.7077 16.6598L13.7519 17.0867L13.7896 17.4254C13.9276 18.5176 14.1788 19.1026 14.7911 19.5472C16.6168 20.8713 19.2321 19.7952 20.3042 16.8596C21.5208 13.5277 20.4438 10.0272 17.5083 8.20153C14.5592 6.36864 10.3669 7.15348 8.38157 9.79609C6.7164 12.0134 6.92103 14.0333 8.20903 14.4634ZM17.217 12.8632C17.1791 12.7348 17.1673 12.6002 17.1822 12.4671C17.1972 12.3341 17.2386 12.2054 17.304 12.0886C17.3695 11.9719 17.4577 11.8694 17.5633 11.7872C17.669 11.705 17.7901 11.6449 17.9194 11.6102C18.0487 11.5755 18.1836 11.5671 18.3162 11.5854C18.4488 11.6037 18.5764 11.6484 18.6915 11.7168C18.8066 11.7852 18.9068 11.8759 18.9863 11.9836C19.0658 12.0913 19.1229 12.2139 19.1542 12.344C19.2156 12.5984 19.1751 12.8666 19.0414 13.0916C18.9077 13.3165 18.6915 13.4803 18.4388 13.548C18.186 13.6158 17.9168 13.5821 17.6886 13.4541C17.4603 13.3262 17.2911 13.1142 17.217 12.8632ZM17.6135 15.6623C17.5446 15.4053 17.5807 15.1315 17.7137 14.9011C17.8467 14.6707 18.0659 14.5025 18.3229 14.4337C18.5799 14.3648 18.8537 14.4009 19.0841 14.5339C19.3145 14.667 19.4826 14.8861 19.5515 15.1431C19.5856 15.2704 19.5943 15.4031 19.5771 15.5337C19.5599 15.6643 19.5171 15.7902 19.4512 15.9043C19.3854 16.0184 19.2977 16.1184 19.1931 16.1986C19.0886 16.2788 18.9693 16.3376 18.8421 16.3717C18.7148 16.4058 18.5821 16.4145 18.4515 16.3973C18.3209 16.3801 18.1949 16.3373 18.0808 16.2715C17.9668 16.2056 17.8668 16.1179 17.7866 16.0134C17.7064 15.9089 17.6475 15.7896 17.6135 15.6623ZM15.6297 10.4533C15.5608 10.1963 15.5969 9.92251 15.7299 9.6921C15.863 9.46169 16.0821 9.29356 16.3391 9.22471C16.5961 9.15586 16.8699 9.19192 17.1003 9.32496C17.3307 9.458 17.4989 9.67712 17.5677 9.93412C17.6018 10.0614 17.6105 10.1941 17.5933 10.3247C17.5761 10.4553 17.5333 10.5813 17.4675 10.6953C17.4016 10.8094 17.3139 10.9094 17.2094 10.9896C17.1048 11.0698 16.9856 11.1286 16.8583 11.1627C16.6013 11.2316 16.3275 11.1955 16.0971 11.0625C15.983 10.9966 15.883 10.9089 15.8028 10.8044C15.7226 10.6999 15.6638 10.5806 15.6297 10.4533ZM15.6072 17.6742C15.5693 17.5458 15.5575 17.4111 15.5724 17.2781C15.5874 17.145 15.6288 17.0164 15.6942 16.8996C15.7597 16.7828 15.8479 16.6803 15.9535 16.5982C16.0592 16.516 16.1803 16.4558 16.3096 16.4211C16.4389 16.3865 16.5738 16.3781 16.7064 16.3964C16.839 16.4147 16.9666 16.4593 17.0817 16.5277C17.1968 16.5961 17.297 16.6868 17.3765 16.7945C17.456 16.9023 17.5131 17.0248 17.5444 17.155C17.6058 17.4093 17.5653 17.6776 17.4316 17.9025C17.2979 18.1274 17.0817 18.2912 16.829 18.359C16.5762 18.4267 16.307 18.393 16.0788 18.2651C15.8505 18.1372 15.6813 17.9251 15.6072 17.6742ZM12.8009 9.67331C12.7656 9.54565 12.7559 9.41226 12.7724 9.28084C12.7889 9.14941 12.8313 9.02256 12.897 8.9076C12.9628 8.79263 13.0507 8.69184 13.1557 8.61102C13.2606 8.53021 13.3805 8.47098 13.5085 8.43675C13.6364 8.40252 13.7699 8.39398 13.9012 8.4116C14.0325 8.42923 14.1589 8.47268 14.2733 8.53944C14.3877 8.60621 14.4878 8.69497 14.5677 8.80061C14.6476 8.90624 14.7058 9.02665 14.7389 9.1549C14.8051 9.41104 14.7674 9.68296 14.634 9.91144C14.5007 10.1399 14.2825 10.3065 14.0269 10.3748C13.7713 10.4432 13.4991 10.4078 13.2695 10.2765C13.0399 10.1451 12.8715 9.92828 12.8009 9.67331Z" fill="#111318"/>
</svg>
