<svg width="28" height="28" viewBox="0 0 28 28" fill="none" xmlns="http://www.w3.org/2000/svg">
<rect width="28" height="28" rx="6" fill="#F3F3F3"/>
<g clip-path="url(#clip0_1638_17920)">
<path d="M14.8985 8.26496C14.8985 8.12521 14.7853 8.01196 14.6455 8.01196H12.2841C12.1444 8.01196 12.0311 8.12521 12.0311 8.26496C12.0311 8.40471 12.1444 8.51796 12.2841 8.51796H14.6455C14.7853 8.51796 14.8985 8.40474 14.8985 8.26496Z" fill="black"/>
<path d="M17.0671 18.1077H16.7784C16.0382 18.1077 15.436 18.71 15.436 19.4502V20.0657V21.25V21.6576C15.436 22.1188 15.0608 22.494 14.5996 22.494C14.1384 22.494 13.7632 22.1188 13.7632 21.6576V21.25V20.0657V18.4147H14.3503C14.4901 18.4147 14.6033 18.3015 14.6033 18.1617V16.5426H15.4638C15.8972 16.5426 16.2499 16.19 16.2499 15.7565V10.542C16.2499 10.4022 16.1366 10.289 15.9969 10.289H15.8936V7.65781C15.8936 7.29509 15.5985 7 15.2358 7H11.6938C11.3311 7 11.036 7.29509 11.036 7.65781V10.289H10.9328C10.7931 10.289 10.6798 10.4022 10.6798 10.542V15.7565C10.6798 16.19 11.0325 16.5426 11.4659 16.5426H12.3264V18.1617C12.3264 18.3015 12.4397 18.4147 12.5794 18.4147H13.2572V20.0657V21.25V21.6576C13.2572 22.3978 13.8594 23 14.5997 23C15.3399 23 15.9421 22.3978 15.9421 21.6576V21.25V20.0657V19.4502C15.9421 18.989 16.3173 18.6138 16.7785 18.6138H17.0672C17.2069 18.6138 17.3202 18.5005 17.3202 18.3608C17.3201 18.221 17.2069 18.1077 17.0671 18.1077ZM12.5793 16.0365H11.4658C11.3114 16.0365 11.1858 15.9109 11.1858 15.7565V10.795H14.1179C14.2577 10.795 14.3709 10.6818 14.3709 10.542C14.3709 10.4023 14.2577 10.289 14.1179 10.289H11.542V7.65781C11.542 7.57413 11.6101 7.506 11.6938 7.506H15.2357C15.3194 7.506 15.3875 7.57413 15.3875 7.65781V10.289H14.8601C14.7203 10.289 14.6071 10.4022 14.6071 10.542C14.6071 10.6817 14.7203 10.795 14.8601 10.795H15.7438V15.7565C15.7438 15.9109 15.6182 16.0365 15.4638 16.0365H14.3503H12.5793ZM12.8323 17.9087V16.5426H14.0973V17.9087H12.8323Z" fill="black"/>
</g>
<defs>
<clipPath id="clip0_1638_17920">
<rect width="16" height="16" fill="white" transform="translate(6 7)"/>
</clipPath>
</defs>
</svg>
