<svg width="28" height="28" viewBox="0 0 28 28" fill="none" xmlns="http://www.w3.org/2000/svg">
<rect width="28" height="28" rx="6" fill="#F3F3F3"/>
<path d="M20.3287 11.7146C20.1528 11.7146 20.0103 11.8571 20.0103 12.033V13.9224H19.3629V12.3264C19.3629 12.1505 19.2204 12.008 19.0445 12.008H17.5673L17.2921 11.0906C17.2517 10.9559 17.1278 10.8637 16.9871 10.8637H14.738V10.0582H16.1542C16.3301 10.0582 16.4726 9.91562 16.4726 9.73975V8.6768C16.4726 8.50093 16.3301 8.3584 16.1542 8.3584H11.5919C11.4161 8.3584 11.2735 8.50093 11.2735 8.6768V9.73979C11.2735 9.91565 11.4161 10.0582 11.5919 10.0582H13.0081V10.8637H9.72813C9.61149 10.8637 9.50419 10.9275 9.44847 11.0299L8.91625 12.008H7.67078C7.49492 12.008 7.35238 12.1505 7.35238 12.3264V13.9224H6.6368V11.6461C6.6368 11.4703 6.49426 11.3278 6.3184 11.3278C6.14254 11.3278 6 11.4703 6 11.6461V18.2267C6 18.4025 6.14254 18.5451 6.3184 18.5451C6.49426 18.5451 6.6368 18.4025 6.6368 18.2267V15.9504H7.35238V17.6358C7.35238 17.8117 7.49492 17.9542 7.67078 17.9542H10.3218L11.5339 19.5181C11.5942 19.596 11.6871 19.6415 11.7856 19.6415H19.0445C19.2204 19.6415 19.3629 19.499 19.3629 19.3231V15.9504H20.0103V17.8399C20.0103 18.0157 20.1528 18.1583 20.3287 18.1583C21.2502 18.1583 22 17.4085 22 16.4869V13.386C22 12.4644 21.2502 11.7146 20.3287 11.7146ZM6.6368 15.3136V14.5592H7.35238V15.3136H6.6368ZM11.9103 8.9952H15.8358V9.42139H11.9103V8.9952ZM13.645 10.0582H14.1012V10.8637H13.645V10.0582ZM7.98918 12.6448H8.21542V17.3174H7.98918V12.6448ZM10.7296 17.4407C10.6692 17.3629 10.5763 17.3174 10.4779 17.3174H8.85222V12.6448H9.10548C9.22213 12.6448 9.32943 12.581 9.38515 12.4786L9.91737 11.5005H16.7502L17.0254 12.4178C17.0658 12.5525 17.1897 12.6448 17.3304 12.6448H17.9017V19.0046H11.9416L10.7296 17.4407ZM18.7261 19.0046H18.5385V12.6448H18.7261V19.0046ZM19.3629 15.3136V14.5592H20.0103V15.3136H19.3629ZM21.3632 16.4868C21.3632 16.9463 21.0622 17.3367 20.6471 17.4713V12.4015C21.0622 12.5361 21.3632 12.9265 21.3632 13.386V16.4868Z" fill="black"/>
</svg>
