<svg width="28" height="28" viewBox="0 0 28 28" fill="none" xmlns="http://www.w3.org/2000/svg">
<rect width="28" height="28" rx="6" fill="#F3F3F3"/>
<path fill-rule="evenodd" clip-rule="evenodd" d="M14.0514 7.70877C14.018 7.69797 13.9821 7.69797 13.9487 7.70877L8.44871 9.49344C8.41523 9.50417 8.38602 9.52525 8.3653 9.55364C8.34457 9.58204 8.33339 9.61628 8.33337 9.65144V13.0001C8.33337 16.6408 10.52 19.3221 13.9534 20.6174C13.9835 20.6287 14.0166 20.6287 14.0467 20.6174C17.48 19.3221 19.6667 16.6408 19.6667 13.0001V9.65077C19.6666 9.61564 19.6554 9.58145 19.6347 9.55307C19.6139 9.5247 19.5848 9.50359 19.5514 9.49277L14.0514 7.70877ZM13.64 6.7581C13.874 6.68219 14.126 6.68219 14.36 6.7581L19.86 8.54144C20.0944 8.61747 20.2987 8.76576 20.4436 8.96504C20.5885 9.16432 20.6666 9.40437 20.6667 9.65077V13.0001C20.6667 17.1268 18.1534 20.1368 14.3994 21.5534C14.142 21.6504 13.8581 21.6504 13.6007 21.5534C9.84737 20.1361 7.33337 17.1268 7.33337 13.0001V9.65077C7.33337 9.1441 7.66004 8.69744 8.14004 8.54144L13.64 6.7581ZM14.6667 14.1548C14.9209 14.008 15.1195 13.7815 15.2318 13.5103C15.3441 13.2392 15.3638 12.9385 15.2879 12.655C15.2119 12.3715 15.0445 12.121 14.8117 11.9423C14.5788 11.7636 14.2935 11.6668 14 11.6668C13.7065 11.6668 13.4212 11.7636 13.1884 11.9423C12.9555 12.121 12.7882 12.3715 12.7122 12.655C12.6362 12.9385 12.6559 13.2392 12.7682 13.5103C12.8806 13.7815 13.0792 14.008 13.3334 14.1548V16.0001C13.3334 16.1769 13.4036 16.3465 13.5286 16.4715C13.6537 16.5965 13.8232 16.6668 14 16.6668C14.1769 16.6668 14.3464 16.5965 14.4714 16.4715C14.5965 16.3465 14.6667 16.1769 14.6667 16.0001V14.1548Z" fill="black"/>
</svg>
