<svg width="18" height="19" viewBox="0 0 18 19" fill="none" xmlns="http://www.w3.org/2000/svg">
<path d="M2.03244 13.4114L3.33744 10.8014C3.69744 10.0739 3.69744 9.2264 3.33744 8.4989L2.03244 5.8814C0.91494 3.6464 3.32244 1.2839 5.53494 2.4539L6.68994 3.0689C6.85494 3.1514 6.98244 3.2864 7.04994 3.4514L11.3174 12.9389C11.4899 13.3289 11.3324 13.7864 10.9574 13.9814L5.52744 16.8389C3.32244 18.0089 0.91494 15.6464 2.03244 13.4114Z" fill="#111318"/>
<path d="M12.2325 12.3463L9.43505 6.13633C9.12005 5.43883 9.87005 4.73383 10.545 5.09383L14.8726 7.37383C16.7101 8.34133 16.7101 10.9663 14.8726 11.9338L13.3426 12.7363C12.9301 12.9463 12.4275 12.7738 12.2325 12.3463Z" fill="#111318"/>
</svg>
