<svg width="28" height="28" viewBox="0 0 28 28" fill="none" xmlns="http://www.w3.org/2000/svg">
<rect width="28" height="28" rx="6" fill="#F3F3F3"/>
<g clip-path="url(#clip0_1638_23709)">
<path d="M13.5536 13.773V13.6831L13.4683 13.6545C12.8031 13.4314 12.3228 12.8027 12.3228 12.0642C12.3228 11.1395 13.0752 10.387 14 10.387C14.9247 10.387 15.6772 11.1395 15.6772 12.0642C15.6772 12.8027 15.1969 13.4315 14.5317 13.6545L14.4464 13.6831V13.773V21.3553C14.4464 21.6019 14.2465 21.8018 14 21.8018C13.7534 21.8018 13.5536 21.6019 13.5536 21.3553V13.773Z" fill="black" stroke="#F3F3F3" stroke-width="0.25"/>
<path d="M16.5794 8.92821L16.5794 8.92822C17.6789 9.60319 18.3358 10.7759 18.3358 12.0641L16.5794 8.92821ZM16.5794 8.92821C16.3692 8.79924 16.3034 8.52436 16.4324 8.31423L16.5794 8.92821ZM17.0465 15.9607L17.0465 15.9607C18.4133 15.1216 19.2288 13.6654 19.2287 12.064C19.2286 10.4626 18.4132 9.00641 17.0465 8.16733C16.8365 8.03842 16.5615 8.10411 16.4325 8.31421L17.0465 15.9607ZM17.0465 15.9607C16.9735 16.0056 16.8929 16.0268 16.8135 16.0268C16.663 16.0268 16.5167 15.951 16.4325 15.8138M17.0465 15.9607L16.4325 15.8138M16.4325 15.8138C16.3034 15.6037 16.3692 15.3288 16.5794 15.1998C17.6788 14.5248 18.3359 13.3521 18.3358 12.0641L16.4325 15.8138Z" fill="black" stroke="#F3F3F3" stroke-width="0.25"/>
<path d="M18.984 6.28754L18.984 6.28752C18.7868 6.13962 18.507 6.17964 18.359 6.37686L18.984 6.28754ZM18.984 6.28754C20.8216 7.66539 21.875 9.77031 21.875 12.0641C21.875 14.3578 20.8216 16.4627 18.984 17.8406L19.059 17.9406L18.984 17.8406C18.9036 17.9009 18.8098 17.9299 18.7166 17.9299C18.5805 17.9299 18.4467 17.8682 18.359 17.7513C18.2111 17.554 18.2511 17.2742 18.4484 17.1263L18.4484 17.1263M18.984 6.28754L18.4484 17.1263M18.4484 17.1263C20.0583 15.9192 20.9822 14.0735 20.9822 12.0641C20.9822 10.0547 20.0583 8.20897 18.4484 7.00187M18.4484 17.1263L18.4484 7.00187M18.4484 7.00187C18.2511 6.85391 18.2111 6.5741 18.359 6.37689L18.4484 7.00187Z" fill="black" stroke="#F3F3F3" stroke-width="0.25"/>
<path d="M8.77136 12.064V12.0641C8.77125 13.6654 9.58667 15.1217 10.9535 15.9608C11.0266 16.0056 11.1071 16.0269 11.1865 16.0269C11.337 16.0269 11.4834 15.951 11.5675 15.8139L11.5676 15.8139C11.6966 15.6038 11.6308 15.3289 11.4206 15.1999L11.4206 15.1999C10.3211 14.5249 9.66411 13.3522 9.66422 12.0641L8.77136 12.064ZM8.77136 12.064C8.77136 10.4627 9.58679 9.00644 10.9535 8.16737C11.1638 8.03835 11.4386 8.10421 11.5676 8.31425M8.77136 12.064L11.5676 8.31425M11.5676 8.31425C11.6966 8.52436 11.6308 8.79922 11.4206 8.92826M11.5676 8.31425L11.4206 8.92826M11.4206 8.92826C10.3212 9.60323 9.66422 10.7759 9.66422 12.0641L11.4206 8.92826Z" fill="black" stroke="#F3F3F3" stroke-width="0.25"/>
<path d="M7.01786 12.0642V12.0642C7.01797 10.0547 7.94187 8.20897 9.55164 7.00192L9.55165 7.00191C9.74889 6.85404 9.78888 6.57423 9.64103 6.37692C9.49305 6.17961 9.21329 6.1396 9.01604 6.28758L9.01602 6.28759C7.17854 7.66533 6.12512 9.77024 6.125 12.0642L7.01786 12.0642ZM7.01786 12.0642C7.01797 14.0736 7.94187 15.9193 9.55176 17.1264L9.62674 17.0264M7.01786 12.0642L9.62674 17.0264M9.62674 17.0264L9.55176 17.1264C9.74901 17.2743 9.789 17.5541 9.64112 17.7514C9.55342 17.8683 9.41957 17.93 9.28349 17.93C9.19025 17.93 9.09654 17.9011 9.01613 17.8408L8.94114 17.9408L9.01613 17.8408C7.17854 16.463 6.12512 14.3581 6.125 12.0642L9.62674 17.0264Z" fill="black" stroke="#F3F3F3" stroke-width="0.25"/>
</g>
<defs>
<clipPath id="clip0_1638_23709">
<rect width="16" height="16" fill="white" transform="translate(6 6)"/>
</clipPath>
</defs>
</svg>
