<svg width="28" height="28" viewBox="0 0 28 28" fill="none" xmlns="http://www.w3.org/2000/svg">
<rect width="28" height="28" rx="6" fill="#F3F3F3"/>
<g clip-path="url(#clip0_1638_18010)">
<path d="M11.2554 6.14404C11.0984 5.95188 10.8044 5.9521 10.6476 6.14404C9.39869 7.67385 6.42578 11.6853 6.42578 13.7335C6.42578 16.229 8.45604 18.2592 10.9515 18.2592C13.447 18.2592 15.4772 16.229 15.4772 13.7335C15.4772 11.6839 12.4901 7.65641 11.2554 6.14404ZM10.9515 17.4743C8.88879 17.4743 7.21069 15.7962 7.21069 13.7336C7.21069 12.1181 9.67951 8.64067 10.9515 7.02082C12.2234 8.64067 14.6922 12.1181 14.6922 13.7336C14.6923 15.7962 13.0142 17.4743 10.9515 17.4743Z" fill="black"/>
<path d="M10.4088 9.75128C10.2284 9.63103 9.98479 9.67974 9.86454 9.86012C9.05328 11.0769 8.49347 12.094 8.2005 12.8833C8.12509 13.0864 8.22866 13.3124 8.43184 13.3878C8.63503 13.4632 8.86091 13.3596 8.93638 13.1564C9.12319 12.6531 9.54916 11.7482 10.5176 10.2956C10.6379 10.1152 10.5892 9.87153 10.4088 9.75128Z" fill="black"/>
<path d="M10.223 15.7786C9.73101 15.6028 9.31792 15.2543 9.05976 14.7974C8.95311 14.6086 8.71361 14.5421 8.52498 14.6488C8.33626 14.7554 8.2697 14.9948 8.37636 15.1835C8.72729 15.8045 9.28923 16.2784 9.95873 16.5178C10.1634 16.5908 10.3876 16.484 10.4604 16.2803C10.5334 16.0762 10.4271 15.8515 10.223 15.7786Z" fill="black"/>
<path d="M18.7907 13.8777C18.6338 13.6855 18.3397 13.6857 18.1829 13.8777C17.898 14.2264 15.3994 17.3299 15.3994 18.9126C15.3994 20.615 16.7844 22 18.4869 22C20.1892 22 21.5742 20.615 21.5742 18.9126C21.5742 17.33 19.0757 14.2264 18.7907 13.8777ZM18.4868 21.215C17.2172 21.215 16.1844 20.1822 16.1844 18.9126C16.1844 17.868 17.8552 15.5805 18.4868 14.7604C19.122 15.5849 20.7892 17.8693 20.7892 18.9126C20.7892 20.1822 19.7563 21.215 18.4868 21.215Z" fill="black"/>
<path d="M18.0297 16.981C17.8441 16.8688 17.6028 16.9283 17.4907 17.1139C16.9895 17.9431 16.8061 18.4344 16.7405 18.7006C16.6886 18.9111 16.8172 19.1237 17.0276 19.1756C17.2382 19.2275 17.4508 19.0989 17.5026 18.8885C17.5373 18.748 17.6709 18.3332 18.1625 17.5199C18.2747 17.3344 18.2152 17.0931 18.0297 16.981Z" fill="black"/>
</g>
<defs>
<clipPath id="clip0_1638_18010">
<rect width="16" height="16" fill="white" transform="translate(6 6)"/>
</clipPath>
</defs>
</svg>
