<svg width="24" height="24" viewBox="0 0 24 24" fill="none" xmlns="http://www.w3.org/2000/svg">
<path d="M22.1355 5.70814C22.1355 8.59225 18.4274 11.0643 18.4274 11.0643C18.4274 11.0643 14.7192 8.59225 14.7192 5.70814C14.7192 4.72468 15.1099 3.7815 15.8053 3.08609C16.5007 2.39068 17.4439 2 18.4274 2C19.4108 2 20.354 2.39068 21.0494 3.08609C21.7448 3.7815 22.1355 4.72468 22.1355 5.70814Z" stroke="#111318" stroke-linecap="round" stroke-linejoin="round"/>
<path d="M18.4275 6.94426C19.1101 6.94426 19.6635 6.39086 19.6635 5.70821C19.6635 5.02556 19.1101 4.47217 18.4275 4.47217C17.7448 4.47217 17.1914 5.02556 17.1914 5.70821C17.1914 6.39086 17.7448 6.94426 18.4275 6.94426Z" stroke="#111318" stroke-linecap="round" stroke-linejoin="round"/>
<path d="M9.28054 15.5966C9.28054 18.4807 5.5724 20.9528 5.5724 20.9528C5.5724 20.9528 1.86426 18.4807 1.86426 15.5966C1.86426 14.6131 2.25494 13.6699 2.95035 12.9745C3.64576 12.2791 4.58894 11.8884 5.5724 11.8884C6.55586 11.8884 7.49904 12.2791 8.19445 12.9745C8.88986 13.6699 9.28054 14.6131 9.28054 15.5966Z" stroke="#111318" stroke-linecap="round" stroke-linejoin="round"/>
<path d="M5.57247 16.8324C6.25512 16.8324 6.80852 16.279 6.80852 15.5964C6.80852 14.9137 6.25512 14.3604 5.57247 14.3604C4.88982 14.3604 4.33643 14.9137 4.33643 15.5964C4.33643 16.279 4.88982 16.8324 5.57247 16.8324Z" stroke="#111318" stroke-linecap="round" stroke-linejoin="round"/>
<path d="M7.48926 21.2361C12.1038 22.5545 21.4154 21.9406 19.9893 16.2361C19.1559 12.9028 5.28429 12.2249 16.6559 11.2361" stroke="#111318" stroke-linecap="round"/>
</svg>
