<svg width="28" height="28" viewBox="0 0 28 28" fill="none" xmlns="http://www.w3.org/2000/svg">
<rect width="28" height="28" rx="6" fill="#F3F3F3"/>
<path d="M21.1771 18.0887L21.1771 18.0887C21.208 18.9171 20.8895 19.7285 20.3033 20.315L20.3033 20.315C19.7387 20.8796 18.9878 21.1906 18.1899 21.1906H18.1899H18.1899H18.1899H18.1899H18.1899H18.1899H18.1899H18.1899H18.1899H18.1899H18.1899H18.1898H18.1898H18.1898H18.1898H18.1898H18.1898H18.1898H18.1898H18.1898H18.1898H18.1898H18.1898H18.1898H18.1897H18.1897H18.1897H18.1897H18.1897H18.1897H18.1897H18.1897H18.1897H18.1897H18.1897H18.1897H18.1896C17.3178 21.1906 16.4913 20.8119 15.9229 20.1511C15.9229 20.1511 15.9229 20.1511 15.9229 20.1511L12.6167 16.3092C12.2034 16.4191 11.7798 16.4748 11.3541 16.4748C9.40549 16.4748 7.63904 15.3206 6.85335 13.5341C6.8012 13.4163 6.81246 13.28 6.8828 13.1721L6.88297 13.1718H6.88297C6.95361 13.0645 7.07336 12.9992 7.20236 12.9992H11.3662V10.1165H7.20239C7.07341 10.1165 6.95362 10.0513 6.88299 9.94389L6.88283 9.94365L6.88283 9.94364C6.81246 9.83573 6.80123 9.69943 6.85342 9.58157M21.1771 18.0887L6.92203 9.61186M21.1771 18.0887C21.1458 17.2603 20.7677 16.4754 20.1394 15.9346L20.0905 15.9914M21.1771 18.0887L20.0905 15.9914M6.85342 9.58157C6.85343 9.58154 6.85344 9.5815 6.85346 9.58147L6.92203 9.61186M6.85342 9.58157C6.8534 9.5816 6.85339 9.58163 6.85337 9.58166L6.92203 9.61186M6.85342 9.58157C7.6391 7.79516 9.40552 6.64058 11.3541 6.64058C14.0653 6.64058 16.2711 8.84638 16.2714 11.5579C16.2714 11.8731 16.2377 12.1956 16.1716 12.5198M6.92203 9.61186C7.69575 7.85256 9.4353 6.71558 11.3541 6.71558C14.0239 6.71558 16.1961 8.8878 16.1964 11.5579C16.1964 11.8816 16.1602 12.2137 16.0892 12.5478M16.1716 12.5198L16.1381 12.491L16.0892 12.5478M16.1716 12.5198L20.1394 15.9346L20.0905 15.9914M16.1716 12.5198C16.1687 12.5343 16.1657 12.5489 16.1626 12.5634L16.0892 12.5478M16.0892 12.5478L20.0905 15.9914M19.6908 16.4558L19.6419 16.5126L15.9372 13.3245C15.4744 14.5195 14.5505 15.5014 13.3859 16.0339L16.501 19.6535C16.9245 20.1456 17.5401 20.4278 18.1897 20.4278H18.1897H18.1897H18.1897H18.1897H18.1897H18.1897H18.1897H18.1897H18.1898H18.1898H18.1898H18.1898H18.1898H18.1898H18.1898H18.1898H18.1898H18.1898H18.1898H18.1898H18.1898H18.1899H18.1899H18.1899H18.1899H18.1899H18.1899H18.1899H18.1899H18.1899H18.1899H18.1899H18.1899H18.1899H18.19H18.19H18.19C18.7843 20.4278 19.343 20.1964 19.764 19.7757C19.764 19.7757 19.764 19.7757 19.764 19.7757M19.6908 16.4558C20.1818 16.8783 20.4654 17.4674 20.4896 18.1146C20.5139 18.7618 20.2751 19.3706 19.8171 19.8287L19.764 19.7757M19.6908 16.4558L19.6419 16.5126C20.117 16.9215 20.3913 17.4911 20.4147 18.1174C20.4382 18.7437 20.2073 19.3324 19.764 19.7757M19.6908 16.4558L19.764 19.7757M11.3541 15.7121C9.91174 15.7121 8.5873 14.9631 7.83474 13.762H11.7476C11.9583 13.762 12.129 13.5914 12.129 13.3806V9.73514C12.129 9.52439 11.9583 9.35374 11.7476 9.35374H7.83469C8.58697 8.15241 9.91171 7.40334 11.3541 7.40334C13.6447 7.40334 15.5086 9.26701 15.5086 11.5579C15.5086 12.3617 15.2076 13.4022 14.537 14.2406C13.8683 15.0765 12.8319 15.7121 11.3541 15.7121Z" fill="#111318" stroke="#111318" stroke-width="0.15"/>
<path d="M17.9672 18.493L18.0556 18.5814L18.144 18.493L18.5773 18.0598L18.6656 17.9714L18.5773 17.883L17.5214 16.8271L17.433 16.7388L17.3446 16.8271L16.9114 17.2604L16.823 17.3488L16.9114 17.4372L17.9672 18.493Z" fill="#111318" stroke="#111318" stroke-width="0.25"/>
</svg>
