<svg width="17" height="13" viewBox="0 0 17 13" fill="none" xmlns="http://www.w3.org/2000/svg">
<path d="M8.65625 1.99297C8.78886 1.99297 8.91603 2.04565 9.0098 2.13942C9.10357 2.23318 9.15625 2.36036 9.15625 2.49297V3.99297C9.15625 4.12558 9.10357 4.25275 9.0098 4.34652C8.91603 4.44029 8.78886 4.49297 8.65625 4.49297C8.52364 4.49297 8.39646 4.44029 8.3027 4.34652C8.20893 4.25275 8.15625 4.12558 8.15625 3.99297V2.49297C8.15625 2.36036 8.20893 2.23318 8.3027 2.13942C8.39646 2.04565 8.52364 1.99297 8.65625 1.99297ZM4.38825 3.72497C4.48201 3.63123 4.60917 3.57857 4.74175 3.57857C4.87433 3.57857 5.00149 3.63123 5.09525 3.72497L6.01025 4.63897C6.05674 4.68546 6.09361 4.74064 6.11877 4.80138C6.14393 4.86212 6.15688 4.92722 6.15688 4.99297C6.15688 5.05871 6.14393 5.12381 6.11877 5.18455C6.09361 5.24529 6.05674 5.30048 6.01025 5.34697C5.96376 5.39346 5.90857 5.43033 5.84783 5.45549C5.78709 5.48065 5.72199 5.4936 5.65625 5.4936C5.59051 5.4936 5.52541 5.48065 5.46467 5.45549C5.40393 5.43033 5.34874 5.39346 5.30225 5.34697L4.38825 4.43197C4.29451 4.3382 4.24186 4.21105 4.24186 4.07847C4.24186 3.94589 4.29451 3.81873 4.38825 3.72497ZM2.65625 7.99297C2.65625 7.86036 2.70893 7.73318 2.8027 7.63941C2.89646 7.54565 3.02364 7.49297 3.15625 7.49297H4.74225C4.87486 7.49297 5.00203 7.54565 5.0958 7.63941C5.18957 7.73318 5.24225 7.86036 5.24225 7.99297C5.24225 8.12558 5.18957 8.25275 5.0958 8.34652C5.00203 8.44029 4.87486 8.49297 4.74225 8.49297H3.15625C3.02364 8.49297 2.89646 8.44029 2.8027 8.34652C2.70893 8.25275 2.65625 8.12558 2.65625 7.99297ZM12.1562 7.99297C12.1562 7.86036 12.2089 7.73318 12.3027 7.63941C12.3965 7.54565 12.5236 7.49297 12.6562 7.49297H14.1562C14.2889 7.49297 14.416 7.54565 14.5098 7.63941C14.6036 7.73318 14.6562 7.86036 14.6562 7.99297C14.6562 8.12558 14.6036 8.25275 14.5098 8.34652C14.416 8.44029 14.2889 8.49297 14.1562 8.49297H12.6562C12.5236 8.49297 12.3965 8.44029 12.3027 8.34652C12.2089 8.25275 12.1562 8.12558 12.1562 7.99297ZM12.9102 3.74697C12.841 3.67805 12.7483 3.63774 12.6507 3.63403C12.553 3.63032 12.4575 3.6635 12.3832 3.72697L8.20325 7.30297C8.10586 7.38502 8.02677 7.48661 7.97111 7.60115C7.91545 7.7157 7.88445 7.84065 7.88012 7.96792C7.87579 8.0952 7.89822 8.22197 7.94596 8.34003C7.9937 8.4581 8.06569 8.56482 8.15728 8.65331C8.24886 8.7418 8.358 8.81009 8.47764 8.85374C8.59727 8.8974 8.72474 8.91546 8.85179 8.90676C8.97884 8.89805 9.10265 8.86278 9.21522 8.80321C9.32778 8.74365 9.42659 8.66112 9.50525 8.56097L12.9392 4.26397C12.999 4.18918 13.0291 4.095 13.0237 3.99943C13.0184 3.90386 12.978 3.81362 12.9102 3.74597V3.74697Z" fill="#191C24"/>
<path fill-rule="evenodd" clip-rule="evenodd" d="M0.656255 7.99282C0.657301 6.82862 0.912428 5.67867 1.40383 4.62327C1.89523 3.56786 2.61105 2.63242 3.50134 1.88225C4.39162 1.13208 5.43491 0.585262 6.55837 0.279968C7.68183 -0.0253257 8.85838 -0.0817386 10.0059 0.114668C11.1534 0.311074 12.2442 0.755567 13.2022 1.41711C14.1602 2.07866 14.9622 2.94133 15.5523 3.94488C16.1425 4.94843 16.5064 6.06869 16.6189 7.22745C16.7313 8.3862 16.5894 9.55554 16.2033 10.6538C15.7613 11.9068 14.3583 12.2558 13.2713 11.9038C11.9653 11.4808 10.1313 10.9928 8.65625 10.9928C7.18225 10.9928 5.34625 11.4808 4.04125 11.9038C2.95425 12.2558 1.55126 11.9068 1.10926 10.6538C0.808397 9.79893 0.655211 8.89909 0.656255 7.99282ZM8.65625 0.992817C7.53663 0.992528 6.43326 1.26081 5.43877 1.77515C4.44427 2.28949 3.58766 3.03487 2.94082 3.94875C2.29399 4.86263 1.8758 5.91833 1.72136 7.02726C1.56692 8.13618 1.68074 9.26597 2.05325 10.3218C2.25625 10.8968 2.97625 11.1978 3.73325 10.9518C5.05325 10.5258 7.01425 9.99282 8.65625 9.99282C10.2983 9.99282 12.2603 10.5248 13.5793 10.9528C14.3363 11.1978 15.0563 10.8968 15.2593 10.3218C15.6318 9.26597 15.7456 8.13618 15.5911 7.02726C15.4367 5.91833 15.0185 4.86263 14.3717 3.94875C13.7249 3.03487 12.8682 2.28949 11.8737 1.77515C10.8792 1.26081 9.77588 0.992528 8.65625 0.992817Z" fill="#191C24"/>
</svg>
