<svg width="28" height="28" viewBox="0 0 28 28" fill="none" xmlns="http://www.w3.org/2000/svg">
<rect width="28" height="28" rx="6" fill="#F3F3F3"/>
<path d="M6.66875 19.5157H9.04688C9.22813 19.5157 9.37188 19.3688 9.37188 19.1907V9.62505C9.37188 9.4438 9.225 9.30005 9.04688 9.30005H6.66875C6.4875 9.30005 6.34375 9.44692 6.34375 9.62505V19.1907C6.34375 19.3719 6.49062 19.5157 6.66875 19.5157ZM6.99687 9.95005H8.72187V18.8625H6.99687V9.95005Z" fill="#231F20"/>
<path d="M10.7656 19.5156H13.1437C13.325 19.5156 13.4687 19.3687 13.4687 19.1906V12.5406C13.4687 12.3593 13.3219 12.2156 13.1437 12.2156H10.7656C10.5844 12.2156 10.4406 12.3625 10.4406 12.5406V19.1906C10.4375 19.3718 10.5844 19.5156 10.7656 19.5156ZM11.0906 12.8687H12.8156V18.8656H11.0906V12.8687Z" fill="#231F20"/>
<path d="M14.8594 19.5156H17.2375C17.4188 19.5156 17.5625 19.3687 17.5625 19.1906V7.44683C17.5625 7.26558 17.4157 7.12183 17.2375 7.12183H14.8594C14.6782 7.12183 14.5344 7.2687 14.5344 7.44683V19.1906C14.5344 19.3718 14.6782 19.5156 14.8594 19.5156ZM15.1844 7.77183H16.9094V18.8656H15.1844V7.77183Z" fill="#231F20"/>
<path d="M21.3313 10.7717H18.9532C18.7719 10.7717 18.6282 10.9186 18.6282 11.0967V19.1905C18.6282 19.3717 18.775 19.5155 18.9532 19.5155H21.3313C21.5125 19.5155 21.6563 19.3686 21.6563 19.1905V11.0967C21.6563 10.9186 21.5094 10.7717 21.3313 10.7717ZM21.0032 18.8655H19.2782V11.4249H21.0032V18.8655Z" fill="#231F20"/>
<path d="M21.3313 20.228H6.66875C6.4875 20.228 6.34375 20.3749 6.34375 20.553C6.34375 20.7312 6.49062 20.878 6.66875 20.878H21.3281C21.5094 20.878 21.6531 20.7312 21.6531 20.553C21.6531 20.3749 21.5094 20.228 21.3313 20.228Z" fill="#231F20"/>
</svg>
