<svg width="28" height="28" viewBox="0 0 28 28" fill="none" xmlns="http://www.w3.org/2000/svg">
<rect width="28" height="28" rx="6" fill="#F3F3F3"/>
<path d="M1.99647 18.3747C1.7211 18.354 1.48109 18.5604 1.46039 18.8358C1.43969 19.1111 1.64614 19.3511 1.9215 19.3718L1.99647 18.3747ZM8.92969 15.1858L8.49821 14.9331L8.92969 15.1858ZM19.127 10.8061L19.3262 10.3475L19.3251 10.347L19.127 10.8061ZM20.7402 13.5733L20.4708 13.9945C20.6204 14.0902 20.8096 14.0993 20.9677 14.0185C21.1258 13.9377 21.2292 13.7791 21.2393 13.6018L20.7402 13.5733ZM16.1888 15.5321L15.7033 15.4124C15.7011 15.4212 15.6992 15.43 15.6975 15.4389L16.1888 15.5321ZM26.0405 19.3733C26.3166 19.3733 26.5405 19.1494 26.5405 18.8733C26.5405 18.5971 26.3166 18.3733 26.0405 18.3733V19.3733ZM1.9215 19.3718C3.56563 19.4954 7.33928 18.8914 9.36116 15.4384L8.49821 14.9331C6.74085 17.9344 3.42479 18.482 1.99647 18.3747L1.9215 19.3718ZM9.36116 15.4384C10.4809 13.526 12.2043 12.1843 13.9968 11.4726C15.7991 10.757 17.6152 10.6985 18.929 11.2652L19.3251 10.347C17.7006 9.64627 15.599 9.76054 13.6278 10.5432C11.6467 11.3297 9.74048 12.8115 8.49821 14.9331L9.36116 15.4384ZM18.9278 11.2647C19.3828 11.4623 20.3173 12.2087 20.241 13.5447L21.2393 13.6018C21.3474 11.7115 20.0235 10.6504 19.3262 10.3475L18.9278 11.2647ZM21.0095 13.152C20.366 12.7406 19.3054 12.3241 18.2461 12.5183C17.703 12.6179 17.1715 12.8771 16.72 13.3597C16.2731 13.8375 15.9254 14.5116 15.7033 15.4124L16.6742 15.6518C16.8669 14.8703 17.1492 14.3647 17.4503 14.0428C17.747 13.7256 18.0818 13.5651 18.4264 13.5019C19.1425 13.3706 19.9429 13.657 20.4708 13.9945L21.0095 13.152ZM15.6975 15.4389C15.5719 16.1011 15.6438 17.0902 16.283 17.9244C16.937 18.7779 18.1096 19.3733 19.9912 19.3733V18.3733C18.3239 18.3733 17.4896 17.8549 17.0768 17.3162C16.6492 16.7582 16.5944 16.0768 16.68 15.6253L15.6975 15.4389ZM19.9912 19.3733H26.0405V18.3733H19.9912V19.3733Z" fill="#111318"/>
</svg>
