<svg width="27" height="28" viewBox="0 0 27 28" fill="none" xmlns="http://www.w3.org/2000/svg">
<path d="M8.92696 1.19604C8.66217 0.871968 8.16634 0.872337 7.90187 1.19604C5.79558 3.77609 0.781738 10.5415 0.781738 13.9958C0.781738 18.2044 4.20578 21.6284 8.41447 21.6284C12.6231 21.6284 16.0471 18.2043 16.0471 13.9958C16.0471 10.539 11.0093 3.74668 8.92696 1.19604ZM8.41436 20.3046C4.93562 20.3046 2.10549 17.4745 2.10549 13.9959C2.10549 11.2713 6.26917 5.40663 8.41436 2.67474C10.5596 5.40663 14.7231 11.2714 14.7231 13.9959C14.7232 17.4745 11.8931 20.3046 8.41436 20.3046Z" fill="white"/>
<path d="M7.49922 7.28021C7.19502 7.07741 6.78414 7.15957 6.58134 7.46377C5.21316 9.51594 4.26903 11.2313 3.77493 12.5623C3.64776 12.905 3.82242 13.286 4.1651 13.4132C4.50778 13.5404 4.88872 13.3657 5.016 13.023C5.33106 12.1742 6.04946 10.6481 7.68274 8.1982C7.88565 7.89394 7.80348 7.48301 7.49922 7.28021Z" fill="white"/>
<path d="M7.18596 17.4454C6.35625 17.1488 5.65956 16.5611 5.22418 15.7905C5.0443 15.4722 4.64038 15.36 4.32227 15.5399C4.00399 15.7198 3.89173 16.1235 4.07161 16.4418C4.66347 17.4891 5.61118 18.2883 6.7403 18.692C7.0854 18.8151 7.46355 18.6351 7.5864 18.2915C7.70952 17.9473 7.53017 17.5684 7.18596 17.4454Z" fill="white"/>
<path d="M21.6355 14.2391C21.3708 13.915 20.8748 13.9152 20.6104 14.2391C20.13 14.8271 15.916 20.0613 15.916 22.7304C15.916 25.6016 18.2519 27.9374 21.123 27.9374C23.9941 27.9374 26.3299 25.6016 26.3299 22.7304C26.3299 20.0614 22.1161 14.8271 21.6355 14.2391ZM21.123 26.6135C18.9818 26.6135 17.2398 24.8716 17.2398 22.7304C17.2398 20.9688 20.0578 17.1108 21.123 15.7277C22.1942 17.1183 25.006 20.971 25.006 22.7304C25.006 24.8716 23.264 26.6135 21.123 26.6135Z" fill="white"/>
<path d="M20.3518 19.4725C20.0388 19.2834 19.6319 19.3837 19.4428 19.6966C18.5976 21.0952 18.2882 21.9238 18.1776 22.3727C18.0901 22.7276 18.307 23.0863 18.6619 23.1738C19.017 23.2613 19.3755 23.0443 19.463 22.6896C19.5214 22.4525 19.7468 21.753 20.5758 20.3814C20.765 20.0685 20.6646 19.6617 20.3518 19.4725Z" fill="white"/>
</svg>
