<svg width="39" height="39" viewBox="0 0 39 39" fill="none" xmlns="http://www.w3.org/2000/svg">
<path d="M3.03015 25.3125C2.64005 25.2832 2.30004 25.5756 2.27071 25.9657C2.24138 26.3558 2.53385 26.6958 2.92395 26.7252L3.03015 25.3125ZM12.382 21.0436L11.7707 20.6857L12.382 21.0436ZM26.1403 15.1346L26.4224 14.4849L26.4208 14.4842L26.1403 15.1346ZM28.3167 18.868L27.9352 19.4648C28.1471 19.6003 28.415 19.6133 28.6391 19.4988C28.8631 19.3843 29.0096 19.1596 29.0239 18.9085L28.3167 18.868ZM22.176 21.5109L21.4882 21.3413C21.4852 21.3538 21.4824 21.3663 21.48 21.3789L22.176 21.5109ZM35.468 26.7272C35.8592 26.7272 36.1763 26.41 36.1763 26.0188C36.1763 25.6276 35.8592 25.3105 35.468 25.3105V26.7272ZM2.92395 26.7252C5.1495 26.8925 10.2564 26.0757 12.9932 21.4015L11.7707 20.6857C9.40859 24.7198 4.94997 25.4568 3.03015 25.3125L2.92395 26.7252ZM12.9932 21.4015C14.4999 18.8284 16.8189 17.0228 19.231 16.0652C21.657 15.102 24.0976 15.0249 25.8597 15.785L26.4208 14.4842C24.2187 13.5342 21.3735 13.6903 18.7082 14.7485C16.0289 15.8122 13.4509 17.8162 11.7707 20.6857L12.9932 21.4015ZM25.8581 15.7843C26.4637 16.0474 27.7115 17.0438 27.6095 18.8276L29.0239 18.9085C29.1707 16.3393 27.3714 14.8971 26.4224 14.4849L25.8581 15.7843ZM28.6983 18.2713C27.8261 17.7136 26.3865 17.1473 24.9457 17.4115C24.2062 17.5471 23.4824 17.9002 22.8681 18.5569C22.2601 19.2068 21.7889 20.122 21.4882 21.3413L22.8637 21.6805C23.1227 20.6301 23.5013 19.9537 23.9027 19.5246C24.2978 19.1023 24.7429 18.889 25.2011 18.8049C26.1557 18.6299 27.2268 19.0119 27.9352 19.4648L28.6983 18.2713ZM21.48 21.3789C21.3092 22.2794 21.4068 23.6244 22.2764 24.7592C23.1669 25.9213 24.7603 26.7272 27.3062 26.7272V25.3105C25.0639 25.3105 23.9497 24.6137 23.4009 23.8975C22.8312 23.154 22.7577 22.245 22.8719 21.6429L21.48 21.3789ZM27.3062 26.7272H35.468V25.3105H27.3062V26.7272Z" fill="white"/>
</svg>
