<svg width="28" height="28" viewBox="0 0 28 28" fill="none" xmlns="http://www.w3.org/2000/svg">
<g clip-path="url(#clip0_4257_1741)">
<path d="M15.4053 9.35655C11.9315 9.35655 9.13292 12.1551 9.13292 15.6289C9.13292 19.1026 11.9315 21.9012 15.4053 21.9012C18.879 21.9012 21.6776 19.1026 21.6776 15.6289C21.6776 12.1551 18.879 9.35655 15.4053 9.35655ZM15.4053 20.7183C12.5827 20.7183 10.3158 18.4515 10.3158 15.6289C10.3158 12.8063 12.5827 10.5395 15.4053 10.5395C18.2278 10.5395 20.4947 12.8063 20.4947 15.6289C20.4947 18.4515 18.2278 20.7183 15.4053 20.7183Z" fill="white" stroke="white" stroke-width="0.236111"/>
<path d="M15.4058 13.6173C14.2992 13.6173 13.3942 14.5223 13.3942 15.629C13.3942 16.7357 14.2991 17.6407 15.4058 17.6407C16.5126 17.6407 17.4175 16.7357 17.4175 15.629C17.4175 14.5223 16.5126 13.6173 15.4058 13.6173ZM15.4058 16.4577C14.9503 16.4577 14.5771 16.0845 14.5771 15.629C14.5771 15.1734 14.9503 14.8002 15.4058 14.8002C15.8614 14.8002 16.2346 15.1734 16.2346 15.629C16.2346 16.0845 15.8614 16.4577 15.4058 16.4577Z" fill="white" stroke="white" stroke-width="0.236111"/>
<path d="M15.406 12.9066C15.5749 12.9066 15.7247 12.8498 15.8327 12.7419C15.9407 12.6339 15.9974 12.484 15.9974 12.3152C15.9974 12.1463 15.9406 11.9965 15.8327 11.8885C15.7247 11.7805 15.5748 11.7237 15.406 11.7237C15.2372 11.7237 15.0873 11.7805 14.9793 11.8885C14.8714 11.9965 14.8146 12.1463 14.8146 12.3152C14.8146 12.484 14.8714 12.6339 14.9793 12.7419C15.0873 12.8498 15.2372 12.9066 15.406 12.9066Z" fill="white" stroke="white" stroke-width="0.236111"/>
<path d="M15.406 18.3517C15.2372 18.3517 15.0873 18.4085 14.9793 18.5164C14.8714 18.6244 14.8146 18.7743 14.8146 18.9431C14.8146 19.1119 14.8714 19.2618 14.9793 19.3698C15.0873 19.4777 15.2372 19.5345 15.406 19.5345C15.5749 19.5345 15.7247 19.4777 15.8327 19.3698C15.9407 19.2618 15.9974 19.1119 15.9974 18.9431C15.9974 18.7743 15.9407 18.6244 15.8327 18.5164C15.7247 18.4085 15.5749 18.3517 15.406 18.3517Z" fill="white" stroke="white" stroke-width="0.236111"/>
<path d="M18.2923 15.202C18.4003 15.094 18.5501 15.0372 18.719 15.0372C18.8878 15.0372 19.0377 15.094 19.1457 15.202C19.2537 15.3099 19.3105 15.4598 19.3104 15.6287L18.2923 15.202ZM18.2923 15.202C18.1844 15.3099 18.1275 15.4598 18.1275 15.6287M18.2923 15.202L18.1275 15.6287M18.1275 15.6287C18.1275 15.7975 18.1843 15.9474 18.2923 16.0554M18.1275 15.6287L18.2923 16.0554M18.2923 16.0554C18.4003 16.1633 18.5502 16.2201 18.719 16.2201M18.2923 16.0554L18.719 16.2201M18.719 16.2201C18.8878 16.2201 19.0377 16.1633 19.1457 16.0553M18.719 16.2201L19.1457 16.0553M19.1457 16.0553C19.2536 15.9474 19.3104 15.7975 19.3104 15.6287L19.1457 16.0553Z" fill="white" stroke="white" stroke-width="0.236111"/>
<path d="M12.092 15.0372C11.9232 15.0372 11.7733 15.094 11.6653 15.202C11.5574 15.3099 11.5006 15.4598 11.5006 15.6287C11.5006 15.7975 11.5574 15.9474 11.6654 16.0554C11.7733 16.1633 11.9232 16.2201 12.092 16.2201C12.2609 16.2201 12.4107 16.1633 12.5187 16.0553C12.6267 15.9474 12.6835 15.7975 12.6835 15.6287C12.6835 15.4598 12.6267 15.3099 12.5187 15.202C12.4107 15.094 12.2609 15.0372 12.092 15.0372Z" fill="white" stroke="white" stroke-width="0.236111"/>
<path d="M15.1215 0.835069V0.834931L15.1158 0.835208C7.24389 1.21688 0.993733 7.46703 0.612063 15.339L0.611925 15.339V15.3447C0.611925 15.7053 0.764956 16.0673 0.977901 16.2803C1.23207 16.5344 1.5448 16.6936 1.91349 16.6936H3.0186C3.58837 23.1021 8.911 28.0553 15.4056 28.0553C22.2404 28.0553 27.8322 22.4636 27.8322 15.6287C27.8322 9.13415 22.879 3.81152 16.4704 3.24174V2.13663C16.4704 1.76789 16.3113 1.45521 16.0571 1.20105C15.7944 0.938299 15.4782 0.835069 15.1215 0.835069ZM15.2717 2.07507C15.2726 2.07641 15.2743 2.07904 15.2763 2.08293C15.2809 2.09217 15.2875 2.10971 15.2875 2.13668V3.32019V5.49784C15.2875 5.50682 15.2818 5.52564 15.2629 5.54456C15.244 5.56348 15.2252 5.56915 15.2162 5.56915V5.56891L15.2087 5.56939C9.94193 5.90456 5.68136 10.1651 5.34619 15.4319L5.34595 15.4319V15.4394C5.34595 15.4483 5.34029 15.4672 5.32135 15.4861C5.30241 15.505 5.28358 15.5107 5.27465 15.5107H3.09699H1.91355C1.88763 15.5107 1.86811 15.5047 1.84491 15.4954C1.84262 15.4945 1.83948 15.4932 1.83581 15.4917C1.83121 15.4898 1.82579 15.4876 1.82019 15.4853C1.81794 15.4797 1.81571 15.4743 1.81381 15.4697C1.81229 15.466 1.81099 15.4629 1.81008 15.4606C1.80113 15.4382 1.79527 15.4193 1.79487 15.3947C2.17205 8.12006 7.89691 2.39519 15.1715 2.01802C15.1954 2.0184 15.2094 2.02403 15.2206 2.03076C15.2351 2.03946 15.2484 2.05181 15.2717 2.07507ZM15.4056 26.8724C9.54559 26.8724 4.74812 22.4408 4.21982 16.6936H5.27465C5.94743 16.6936 6.52683 16.1756 6.52887 15.4903C6.81083 10.8198 10.5944 7.08115 15.2678 6.75202C15.9527 6.74964 16.4704 6.17038 16.4704 5.49779V4.44296C22.2176 4.97121 26.6492 9.76873 26.6492 15.6287C26.6492 21.8125 21.5893 26.8724 15.4056 26.8724Z" fill="white" stroke="white" stroke-width="0.236111"/>
</g>
<defs>
<clipPath id="clip0_4257_1741">
<rect width="26.9841" height="26.9841" fill="white" transform="translate(0.72998 0.953125)"/>
</clipPath>
</defs>
</svg>
