<svg width="23" height="23" viewBox="0 0 23 23" fill="none" xmlns="http://www.w3.org/2000/svg">
<path d="M12.4552 16.3911C12.4552 16.6297 12.3604 16.8585 12.1917 17.0272C12.0231 17.1958 11.7943 17.2906 11.5557 17.2906C11.3172 17.2906 11.0884 17.1958 10.9197 17.0272C10.751 16.8585 10.6562 16.6297 10.6562 16.3911C10.6562 16.1526 10.751 15.9238 10.9197 15.7551C11.0884 15.5864 11.3172 15.4917 11.5557 15.4917C11.7943 15.4917 12.0231 15.5864 12.1917 15.7551C12.3604 15.9238 12.4552 16.1526 12.4552 16.3911ZM12.2303 8.9705C12.2303 8.79159 12.1592 8.62 12.0327 8.49349C11.9062 8.36697 11.7346 8.2959 11.5557 8.2959C11.3768 8.2959 11.2052 8.36697 11.0787 8.49349C10.9522 8.62 10.8811 8.79159 10.8811 8.9705V13.0181C10.8811 13.197 10.9522 13.3686 11.0787 13.4951C11.2052 13.6216 11.3768 13.6927 11.5557 13.6927C11.7346 13.6927 11.9062 13.6216 12.0327 13.4951C12.1592 13.3686 12.2303 13.197 12.2303 13.0181V8.9705Z" fill="white"/>
<path fill-rule="evenodd" clip-rule="evenodd" d="M9.60942 3.56853C10.4756 2.07091 12.6361 2.07091 13.5023 3.56853L21.5679 17.5139C22.4341 19.0133 21.352 20.8887 19.6205 20.8887H3.49121C1.75883 20.8887 0.677668 19.0133 1.54386 17.5139L9.60942 3.56853ZM12.3348 4.24403C12.2559 4.1073 12.1423 3.99377 12.0056 3.91483C11.8689 3.83589 11.7138 3.79433 11.5559 3.79433C11.398 3.79433 11.2429 3.83589 11.1062 3.91483C10.9694 3.99377 10.8559 4.1073 10.7769 4.24403L2.71227 18.1894C2.6331 18.3262 2.59136 18.4814 2.59125 18.6394C2.59113 18.7974 2.63265 18.9527 2.71162 19.0896C2.79058 19.2264 2.90422 19.3401 3.04108 19.4191C3.17794 19.4981 3.33319 19.5396 3.49121 19.5395H19.6205C19.7784 19.5395 19.9335 19.498 20.0703 19.419C20.207 19.3401 20.3205 19.2265 20.3995 19.0898C20.4784 18.953 20.52 18.7979 20.52 18.6401C20.52 18.4822 20.4784 18.3271 20.3995 18.1903L12.3348 4.24313V4.24403Z" fill="white"/>
</svg>
