<svg width="19" height="21" viewBox="0 0 19 21" fill="none" xmlns="http://www.w3.org/2000/svg">
<path fill-rule="evenodd" clip-rule="evenodd" d="M9.95752 1.95614C9.9125 1.94156 9.86403 1.94156 9.81901 1.95614L2.39837 4.36402C2.3532 4.3785 2.31379 4.40694 2.28583 4.44525C2.25786 4.48356 2.24278 4.52977 2.24276 4.5772V9.09524C2.24276 14.0072 5.19303 17.6249 9.8253 19.3726C9.86591 19.3878 9.91062 19.3878 9.95123 19.3726C14.5835 17.6249 17.5338 14.0072 17.5338 9.09524V4.5763C17.5336 4.5289 17.5185 4.48276 17.4905 4.44448C17.4626 4.4062 17.4233 4.37772 17.3782 4.36312L9.95752 1.95614ZM9.40255 0.673493C9.71826 0.571075 10.0583 0.571075 10.374 0.673493L17.7946 3.07958C18.1108 3.18216 18.3865 3.38223 18.582 3.6511C18.7775 3.91998 18.8829 4.24385 18.883 4.5763V9.09524C18.883 14.663 15.492 18.7241 10.427 20.6355C10.0798 20.7663 9.69676 20.7663 9.34948 20.6355C4.28546 18.7232 0.893555 14.663 0.893555 9.09524V4.5763C0.893555 3.8927 1.3343 3.29005 1.98191 3.07958L9.40255 0.673493ZM10.7877 10.6531C11.1307 10.4551 11.3987 10.1495 11.5502 9.78362C11.7017 9.41776 11.7283 9.01213 11.6258 8.62963C11.5233 8.24713 11.2975 7.90914 10.9833 7.66807C10.6692 7.42699 10.2843 7.29632 9.88826 7.2963C9.49227 7.29632 9.10735 7.42699 8.79319 7.66807C8.47903 7.90914 8.25319 8.24713 8.1507 8.62963C8.04821 9.01213 8.07479 9.41776 8.22632 9.78362C8.37785 10.1495 8.64586 10.4551 8.98879 10.6531V13.1429C8.98879 13.3814 9.08356 13.6102 9.25224 13.7789C9.42093 13.9476 9.64971 14.0423 9.88826 14.0423C10.1268 14.0423 10.3556 13.9476 10.5243 13.7789C10.693 13.6102 10.7877 13.3814 10.7877 13.1429V10.6531Z" fill="white"/>
</svg>
