<svg width="28" height="28" viewBox="0 0 28 28" fill="none" xmlns="http://www.w3.org/2000/svg">
<g opacity="0.5">
<path d="M13.6562 11.4932C13.7889 11.4932 13.916 11.5458 14.0098 11.6396C14.1036 11.7334 14.1562 11.8606 14.1562 11.9932V13.4932C14.1562 13.6258 14.1036 13.7529 14.0098 13.8467C13.916 13.9405 13.7889 13.9932 13.6562 13.9932C13.5236 13.9932 13.3965 13.9405 13.3027 13.8467C13.2089 13.7529 13.1562 13.6258 13.1562 13.4932V11.9932C13.1562 11.8606 13.2089 11.7334 13.3027 11.6396C13.3965 11.5458 13.5236 11.4932 13.6562 11.4932ZM9.38825 13.2252C9.48201 13.1314 9.60917 13.0788 9.74175 13.0788C9.87433 13.0788 10.0015 13.1314 10.0952 13.2252L11.0102 14.1392C11.0567 14.1857 11.0936 14.2408 11.1188 14.3016C11.1439 14.3623 11.1569 14.4274 11.1569 14.4932C11.1569 14.5589 11.1439 14.624 11.1188 14.6847C11.0936 14.7455 11.0567 14.8007 11.0102 14.8472C10.9638 14.8937 10.9086 14.9305 10.8478 14.9557C10.7871 14.9808 10.722 14.9938 10.6562 14.9938C10.5905 14.9938 10.5254 14.9808 10.4647 14.9557C10.4039 14.9305 10.3487 14.8937 10.3022 14.8472L9.38825 13.9322C9.29451 13.8384 9.24186 13.7112 9.24186 13.5787C9.24186 13.4461 9.29451 13.3189 9.38825 13.2252ZM7.65625 17.4932C7.65625 17.3606 7.70893 17.2334 7.8027 17.1396C7.89646 17.0458 8.02364 16.9932 8.15625 16.9932H9.74225C9.87486 16.9932 10.002 17.0458 10.0958 17.1396C10.1896 17.2334 10.2422 17.3606 10.2422 17.4932C10.2422 17.6258 10.1896 17.7529 10.0958 17.8467C10.002 17.9405 9.87486 17.9932 9.74225 17.9932H8.15625C8.02364 17.9932 7.89646 17.9405 7.8027 17.8467C7.70893 17.7529 7.65625 17.6258 7.65625 17.4932ZM17.1562 17.4932C17.1562 17.3606 17.2089 17.2334 17.3027 17.1396C17.3965 17.0458 17.5236 16.9932 17.6562 16.9932H19.1562C19.2889 16.9932 19.416 17.0458 19.5098 17.1396C19.6036 17.2334 19.6562 17.3606 19.6562 17.4932C19.6562 17.6258 19.6036 17.7529 19.5098 17.8467C19.416 17.9405 19.2889 17.9932 19.1562 17.9932H17.6562C17.5236 17.9932 17.3965 17.9405 17.3027 17.8467C17.2089 17.7529 17.1562 17.6258 17.1562 17.4932ZM17.9102 13.2472C17.841 13.1782 17.7483 13.1379 17.6507 13.1342C17.553 13.1305 17.4575 13.1637 17.3832 13.2272L13.2032 16.8032C13.1059 16.8852 13.0268 16.9868 12.9711 17.1013C12.9155 17.2159 12.8845 17.3408 12.8801 17.4681C12.8758 17.5954 12.8982 17.7222 12.946 17.8402C12.9937 17.9583 13.0657 18.065 13.1573 18.1535C13.2489 18.242 13.358 18.3103 13.4776 18.3539C13.5973 18.3976 13.7247 18.4157 13.8518 18.407C13.9788 18.3982 14.1027 18.363 14.2152 18.3034C14.3278 18.2438 14.4266 18.1613 14.5052 18.0612L17.9392 13.7642C17.999 13.6894 18.0291 13.5952 18.0237 13.4996C18.0184 13.4041 17.978 13.3138 17.9102 13.2462V13.2472Z" fill="white"/>
<path fill-rule="evenodd" clip-rule="evenodd" d="M5.65626 17.4928C5.6573 16.3286 5.91243 15.1787 6.40383 14.1233C6.89523 13.0679 7.61105 12.1324 8.50134 11.3822C9.39162 10.6321 10.4349 10.0853 11.5584 9.77997C12.6818 9.47467 13.8584 9.41826 15.0059 9.61467C16.1534 9.81107 17.2442 10.2556 18.2022 10.9171C19.1602 11.5787 19.9622 12.4413 20.5523 13.4449C21.1425 14.4484 21.5064 15.5687 21.6189 16.7274C21.7313 17.8862 21.5894 19.0555 21.2033 20.1538C20.7613 21.4068 19.3583 21.7558 18.2713 21.4038C16.9653 20.9808 15.1313 20.4928 13.6563 20.4928C12.1823 20.4928 10.3463 20.9808 9.04125 21.4038C7.95425 21.7558 6.55126 21.4068 6.10926 20.1538C5.8084 19.2989 5.65521 18.3991 5.65626 17.4928ZM13.6563 10.4928C12.5366 10.4925 11.4333 10.7608 10.4388 11.2751C9.44427 11.7895 8.58766 12.5349 7.94082 13.4488C7.29399 14.3626 6.8758 15.4183 6.72136 16.5273C6.56692 17.6362 6.68074 18.766 7.05325 19.8218C7.25625 20.3968 7.97625 20.6978 8.73325 20.4518C10.0533 20.0258 12.0143 19.4928 13.6563 19.4928C15.2983 19.4928 17.2603 20.0248 18.5793 20.4528C19.3363 20.6978 20.0563 20.3968 20.2593 19.8218C20.6318 18.766 20.7456 17.6362 20.5911 16.5273C20.4367 15.4183 20.0185 14.3626 19.3717 13.4488C18.7249 12.5349 17.8682 11.7895 16.8737 11.2751C15.8792 10.7608 14.7759 10.4925 13.6563 10.4928Z" fill="white"/>
</g>
</svg>
