<svg width="28" height="28" viewBox="0 0 28 28" fill="none" xmlns="http://www.w3.org/2000/svg">
<g opacity="0.5">
<path d="M22.2162 8.96651C22.2162 11.2738 19.2497 13.2515 19.2497 13.2515C19.2497 13.2515 16.2832 11.2738 16.2832 8.96651C16.2832 8.17974 16.5957 7.4252 17.1521 6.86887C17.7084 6.31254 18.4629 6 19.2497 6C20.0365 6 20.791 6.31254 21.3474 6.86887C21.9037 7.4252 22.2162 8.17974 22.2162 8.96651Z" stroke="white" stroke-linecap="round" stroke-linejoin="round"/>
<path d="M19.2506 9.95521C19.7967 9.95521 20.2394 9.5125 20.2394 8.96638C20.2394 8.42026 19.7967 7.97754 19.2506 7.97754C18.7044 7.97754 18.2617 8.42026 18.2617 8.96638C18.2617 9.5125 18.7044 9.95521 19.2506 9.95521Z" stroke="white" stroke-linecap="round" stroke-linejoin="round"/>
<path d="M11.933 16.8776C11.933 19.1849 8.96651 21.1626 8.96651 21.1626C8.96651 21.1626 6 19.1849 6 16.8776C6 16.0909 6.31254 15.3363 6.86887 14.78C7.4252 14.2237 8.17974 13.9111 8.96651 13.9111C9.75328 13.9111 10.5078 14.2237 11.0642 14.78C11.6205 15.3363 11.933 16.0909 11.933 16.8776Z" stroke="white" stroke-linecap="round" stroke-linejoin="round"/>
<path d="M8.96735 17.8663C9.51347 17.8663 9.95619 17.4236 9.95619 16.8775C9.95619 16.3314 9.51347 15.8887 8.96735 15.8887C8.42123 15.8887 7.97852 16.3314 7.97852 16.8775C7.97852 17.4236 8.42123 17.8663 8.96735 17.8663Z" stroke="white" stroke-linecap="round" stroke-linejoin="round"/>
<path d="M10.5 21.3887C14.1917 22.4434 21.6409 21.9523 20.5 17.3887C19.8333 14.722 8.73603 14.1797 17.8333 13.3887" stroke="white" stroke-linecap="round"/>
</g>
</svg>
