<svg width="28" height="28" viewBox="0 0 28 28" fill="none" xmlns="http://www.w3.org/2000/svg">
<g opacity="0.5">
<g clip-path="url(#clip0_912_18961)">
<path d="M5.44444 17.6V10.4H18.2V17.6H5.44444ZM23.7778 11C24.1152 11 24.4032 11.1172 24.6419 11.3516C24.8806 11.5859 25 11.8688 25 12.2V15.8C25 16.1313 24.8806 16.4141 24.6419 16.6484C24.4032 16.8828 24.1152 17 23.7778 17V18.5C23.7778 18.9125 23.6282 19.2656 23.329 19.5594C23.0298 19.8531 22.6701 20 22.25 20H4.52778C4.10764 20 3.74797 19.8531 3.44878 19.5594C3.14959 19.2656 3 18.9125 3 18.5V9.5C3 9.0875 3.14959 8.73438 3.44878 8.44063C3.74797 8.14687 4.10764 8 4.52778 8H22.25C22.6701 8 23.0298 8.14687 23.329 8.44063C23.6282 8.73438 23.7778 9.0875 23.7778 9.5V11ZM23.7778 15.8V12.2H22.5556V9.5C22.5556 9.4125 22.5269 9.34063 22.4696 9.28438C22.4123 9.22813 22.3391 9.2 22.25 9.2H4.52778C4.43866 9.2 4.36545 9.22813 4.30816 9.28438C4.25087 9.34063 4.22222 9.4125 4.22222 9.5V18.5C4.22222 18.5875 4.25087 18.6594 4.30816 18.7156C4.36545 18.7719 4.43866 18.8 4.52778 18.8H22.25C22.3391 18.8 22.4123 18.7719 22.4696 18.7156C22.5269 18.6594 22.5556 18.5875 22.5556 18.5V15.8H23.7778Z" fill="white"/>
</g>
</g>
<defs>
<clipPath id="clip0_912_18961">
<rect width="22" height="12" fill="white" transform="translate(3 8)"/>
</clipPath>
</defs>
</svg>
