<svg width="28" height="28" viewBox="0 0 28 28" fill="none" xmlns="http://www.w3.org/2000/svg">
<g opacity="0.5">
<path d="M22.8339 13.3484C22.7355 13.2505 22.6037 13.1932 22.4649 13.1879C22.3262 13.1826 22.1905 13.2298 22.0849 13.32L16.1436 18.4027C16.0052 18.5194 15.8928 18.6638 15.8137 18.8266C15.7346 18.9894 15.6905 19.167 15.6843 19.3479C15.6782 19.5288 15.7101 19.709 15.7779 19.8768C15.8458 20.0446 15.9481 20.1963 16.0783 20.3221C16.2085 20.4478 16.3636 20.5449 16.5336 20.6069C16.7037 20.669 16.8848 20.6947 17.0654 20.6823C17.246 20.6699 17.422 20.6198 17.582 20.5351C17.742 20.4505 17.8824 20.3332 17.9942 20.1908L22.8751 14.0833C22.9601 13.977 23.0028 13.8431 22.9952 13.7073C22.9876 13.5714 22.9302 13.4432 22.8339 13.347V13.3484Z" fill="white"/>
<path fill-rule="evenodd" clip-rule="evenodd" d="M18.8564 13.2753C18.8274 13.263 18.7984 13.2508 18.7693 13.2387C17.5611 12.7383 16.2661 12.4807 14.9584 12.4807C13.6507 12.4807 12.3557 12.7383 11.1475 13.2387C9.93935 13.7392 8.84156 14.4727 7.91685 15.3974C6.99214 16.3221 6.25862 17.4199 5.75817 18.6281C5.48344 19.2914 5.28189 19.9808 5.15598 20.6841H5C5 19.2811 5.27635 17.8917 5.81328 16.5955C6.35021 15.2992 7.13719 14.1214 8.12931 13.1293C9.12142 12.1372 10.2992 11.3502 11.5955 10.8133C12.8917 10.2764 14.2811 10 15.6841 10C17.0872 10 18.4765 10.2764 19.7728 10.8133C20.1716 10.9785 20.5592 11.1673 20.9336 11.3786L18.8564 13.2753Z" fill="white"/>
</g>
</svg>
