<svg width="24" height="24" viewBox="0 0 24 24" fill="none" xmlns="http://www.w3.org/2000/svg">
<path d="M8.00234 0.711915C7.91324 0.711721 7.82534 0.732359 7.74564 0.772183L0.888498 4.20075C0.793372 4.24807 0.71332 4.32097 0.65733 4.41126C0.601341 4.50156 0.571629 4.60567 0.571533 4.71192L0.571533 22.9976C0.571631 23.0949 0.596546 23.1905 0.643921 23.2754C0.691296 23.3604 0.759563 23.4318 0.84226 23.483C0.924956 23.5342 1.01935 23.5634 1.1165 23.5679C1.21365 23.5724 1.31034 23.5521 1.39743 23.5088L8.01796 20.1985L15.7747 23.5222C15.8508 23.5549 15.9332 23.5706 16.0161 23.5683C16.099 23.566 16.1803 23.5457 16.2546 23.5088L18.6229 22.3235L17.7724 21.4731L15.9822 22.3682L10.1586 19.8726C9.58518 19.711 9.04346 19.4757 8.54028 19.1784L8.22555 19.0445C8.14937 19.0118 8.06699 18.9961 7.98412 18.9984C7.90125 19.0007 7.81987 19.021 7.74564 19.0579L1.71439 22.0735V5.06459L8.01796 1.91281L15.7747 5.23647C15.8508 5.26918 15.9332 5.28493 16.0161 5.28261C16.099 5.2803 16.1803 5.25998 16.2546 5.22308L22.2858 2.20745V19.2164L21.0046 19.857L21.7836 20.636C21.8074 20.6599 21.8304 20.6845 21.8528 20.7097L23.1117 20.0802C23.2068 20.0329 23.2869 19.96 23.3429 19.8697C23.3989 19.7794 23.4286 19.6753 23.4287 19.5691V1.28334C23.4286 1.18609 23.4037 1.09047 23.3563 1.00553C23.3089 0.920599 23.2406 0.849159 23.158 0.797976C23.0753 0.746794 22.9809 0.717562 22.8837 0.713049C22.7866 0.708535 22.6899 0.728889 22.6028 0.772183L15.9822 4.08245L8.22555 0.75879C8.15505 0.728326 8.07914 0.712383 8.00234 0.711915V0.711915ZM7.99118 2.9887C7.91613 2.98987 7.84206 3.00581 7.77318 3.03561C7.7043 3.06541 7.64196 3.10849 7.58973 3.16238C7.53749 3.21627 7.49639 3.27992 7.46875 3.3497C7.44112 3.41948 7.4275 3.49402 7.42868 3.56906V8.18959C7.77967 7.87354 8.16148 7.59407 8.57153 7.35477V3.56906C8.57273 3.49251 8.55854 3.41651 8.5298 3.34556C8.50105 3.2746 8.45835 3.21015 8.40422 3.15602C8.35009 3.10188 8.28563 3.05918 8.21468 3.03044C8.14373 3.0017 8.06772 2.9875 7.99118 2.9887V2.9887ZM15.9912 6.41727C15.9161 6.41844 15.8421 6.43438 15.7732 6.46418C15.7043 6.49398 15.642 6.53706 15.5897 6.59095C15.5375 6.64484 15.4964 6.70849 15.4688 6.77827C15.4411 6.84805 15.4275 6.92259 15.4287 6.99763V7.35477C15.8387 7.59407 16.2205 7.87354 16.5715 8.18959V6.99763C16.5727 6.92109 16.5585 6.84508 16.5298 6.77413C16.5011 6.70317 16.4584 6.63872 16.4042 6.58459C16.3501 6.53046 16.2856 6.48775 16.2147 6.45901C16.1437 6.43027 16.0677 6.41608 15.9912 6.41727V6.41727ZM12.0001 7.56013C8.85096 7.56013 6.28582 10.1253 6.28582 13.2744C6.28582 16.4236 8.85096 18.9887 12.0001 18.9887C13.3688 18.9887 14.6107 18.4849 15.5961 17.6784L20.1675 22.2521C20.2207 22.3052 20.2839 22.3472 20.3533 22.3759C20.4228 22.4045 20.4972 22.4192 20.5723 22.4191C20.6475 22.419 20.7218 22.4041 20.7912 22.3753C20.8606 22.3464 20.9236 22.3042 20.9767 22.251C21.0297 22.1978 21.0718 22.1346 21.1004 22.0652C21.1291 21.9957 21.1438 21.9213 21.1437 21.8462C21.1436 21.771 21.1287 21.6967 21.0998 21.6273C21.071 21.5579 21.0288 21.4949 20.9756 21.4418L16.4041 16.8704C17.2106 15.885 17.7144 14.6431 17.7144 13.2744C17.7144 10.1253 15.1492 7.56013 12.0001 7.56013ZM12.0001 8.70299C14.5316 8.70299 16.5715 10.7429 16.5715 13.2744C16.5715 15.8059 14.5316 17.8458 12.0001 17.8458C9.46861 17.8458 7.42868 15.8059 7.42868 13.2744C7.42868 10.7429 9.46861 8.70299 12.0001 8.70299ZM15.4711 19.1717C15.4574 19.1799 15.4424 19.186 15.4287 19.1941V20.7119C15.4276 20.7876 15.4416 20.8628 15.4698 20.9331C15.4981 21.0034 15.54 21.0673 15.5932 21.1212C15.6463 21.1752 15.7097 21.218 15.7795 21.2472C15.8494 21.2764 15.9244 21.2915 16.0001 21.2915C16.0758 21.2915 16.1508 21.2764 16.2207 21.2472C16.2905 21.218 16.3539 21.1752 16.4071 21.1212C16.4602 21.0673 16.5021 21.0034 16.5304 20.9331C16.5586 20.8628 16.5726 20.7876 16.5715 20.7119V20.2722L15.4711 19.1717Z" fill="white"/>
</svg>
