<svg width="24" height="24" viewBox="0 0 24 24" fill="none" xmlns="http://www.w3.org/2000/svg">
<path d="M11.3083 11.8166V11.7267L11.2231 11.6981C10.2517 11.3723 9.55005 10.4542 9.55005 9.37539C9.55005 8.02476 10.649 6.92578 11.9997 6.92578C13.3503 6.92578 14.4493 8.02476 14.4493 9.37539C14.4493 10.4542 13.7476 11.3724 12.7762 11.6981L12.691 11.7267V11.8166V22.6485C12.691 23.0303 12.3815 23.3398 11.9997 23.3398C11.6178 23.3398 11.3083 23.0303 11.3083 22.6485V11.8166Z" fill="white" stroke="#F3F3F3" stroke-width="0.25"/>
<path d="M15.6572 4.94066L15.6572 4.94067C17.212 5.89519 18.1408 7.5532 18.1408 9.37478L15.6572 4.94066ZM15.6572 4.94066C15.3318 4.74094 15.2299 4.31525 15.4297 3.98985L15.6572 4.94066ZM16.4427 15.0883L16.3805 14.9871C18.349 13.7786 19.5236 11.6811 19.5235 9.37471C19.5235 7.06836 18.3489 4.97078 16.3805 3.76238C16.0553 3.56275 15.6296 3.66448 15.4297 3.98983L16.4427 15.0883ZM16.4427 15.0883L16.3805 14.9871C16.2676 15.0565 16.1428 15.0894 16.0196 15.0894C15.7868 15.0894 15.5601 14.9721 15.4297 14.7596C15.2299 14.4342 15.3318 14.0086 15.6572 13.8087C17.212 12.8541 18.141 11.1961 18.1408 9.37479L16.4427 15.0883Z" fill="white" stroke="#F3F3F3" stroke-width="0.25"/>
<path d="M19.1523 1.07968L19.1522 1.07966C18.8469 0.850604 18.4135 0.91262 18.1844 1.21801L19.1523 1.07968ZM19.1523 1.07968C21.7909 3.05815 23.3037 6.08104 23.3037 9.37477C23.3037 12.6684 21.7909 15.6913 19.1523 17.6698L19.2266 17.769L19.1523 17.6698C19.0278 17.7631 18.8824 17.8081 18.7382 17.8081C18.5276 17.8081 18.3202 17.7125 18.1844 17.5314M19.1523 1.07968L18.0844 17.6064M18.2478 2.28587C20.5028 3.97665 21.7961 6.56049 21.7961 9.37477C21.7961 12.189 20.5028 14.7728 18.2478 16.4637C17.8871 16.7341 17.814 17.2458 18.0844 17.6064M18.2478 2.28587L18.3228 2.18587M18.2478 2.28587L18.3228 2.18586C18.3228 2.18587 18.3228 2.18587 18.3228 2.18587M18.2478 2.28587L18.1844 1.21803C17.9554 1.52344 18.0173 1.95675 18.3228 2.18587M18.3228 2.18587C20.6092 3.90021 21.9211 6.52107 21.9211 9.37477C21.9211 12.2284 20.6092 14.8493 18.3228 16.5637L18.3228 16.5637C18.0173 16.7927 17.9554 17.226 18.1844 17.5314M18.1844 17.5314L18.0844 17.6064M18.1844 17.5314C18.1844 17.5315 18.1844 17.5315 18.1844 17.5315L18.0844 17.6064" fill="white" stroke="#F3F3F3" stroke-width="0.25"/>
<path d="M4.47705 9.37476V9.37477C4.47689 11.6811 5.65146 13.7787 7.61994 14.9872C7.73298 15.0566 7.85769 15.0895 7.98087 15.0895C8.21361 15.0895 8.44045 14.9722 8.57082 14.7598L8.57083 14.7597C8.77062 14.4343 8.66873 14.0086 8.34332 13.8089L8.3433 13.8089C6.7884 12.8543 5.85954 11.1963 5.8597 9.37484L4.47705 9.37476ZM4.47705 9.37476C4.47705 7.06842 5.65163 4.97085 7.61995 3.76245C7.94561 3.56263 8.37111 3.66461 8.57083 3.98988C8.77061 4.31527 8.66874 4.74091 8.3433 4.94073M4.47705 9.37476L8.3433 4.94073M8.3433 4.94073C6.78847 5.89525 5.85971 7.55325 5.8597 9.37483L8.3433 4.94073Z" fill="white" stroke="#F3F3F3" stroke-width="0.25"/>
<path d="M2.07919 9.37494L2.07919 9.37493C2.07935 6.52107 3.39124 3.90021 5.67744 2.18595L5.67745 2.18594C5.98291 1.95693 6.04483 1.52363 5.81586 1.2181L2.07919 9.37494ZM2.07919 9.37494C2.07935 12.2286 3.39124 14.8495 5.67761 16.5638L5.75259 16.4638M2.07919 9.37494L5.75259 16.4638M5.75259 16.4638L5.67761 16.5638C5.98308 16.7928 6.04499 17.2261 5.816 17.5316C5.68018 17.7126 5.47279 17.8082 5.26223 17.8082C5.11786 17.8082 4.97262 17.7634 4.84816 17.67L4.77959 17.7615L4.84815 17.67C2.20955 15.6916 0.696695 12.6688 0.696533 9.37494C0.696695 6.08096 2.20955 3.05807 4.84799 1.07976L4.84801 1.07974M5.75259 16.4638L4.84801 1.07974M4.84801 1.07974C5.15348 0.850595 5.5867 0.912561 5.81584 1.21807L4.84801 1.07974Z" fill="white" stroke="#F3F3F3" stroke-width="0.25"/>
</svg>
